<?xml version="1.0" encoding="UTF-8"?>
<svg id="Layer_1" data-name="Layer 1" xmlns="http://www.w3.org/2000/svg" viewBox="0 0 339 300.25">
  <defs>
    <style>
      .cls-1, .cls-2 {
        fill: #fff;
      }

      .cls-2 {
        stroke-width: 2px;
      }

      .cls-2, .cls-3 {
        stroke: #fff;
        stroke-miterlimit: 10;
      }

      .cls-3 {
        fill: none;
        stroke-width: 4px;
      }
    </style>
  </defs>
  <g>
    <g>
      <polygon class="cls-1" points="274.52 142.81 271.27 146.14 270.21 150.12 273.46 146.79 274.52 142.81 274.52 142.81"/>
      <polygon class="cls-1" points="274.05 146.19 273.46 146.79 273.08 148.22 272.9 148.89 274.63 148.82 274.06 146.24 274.05 146.19 274.05 146.19"/>
      <polygon class="cls-1" points="277.73 148.71 276.21 148.77 275.84 150.44 276.06 150.24 275.99 150.54 276 150.54 276 150.53 277.89 148.8 277.62 148.81 277.73 148.71 277.73 148.71"/>
      <polygon class="cls-1" points="280.13 131.46 277 131.58 276.78 134.9 280.13 131.46 280.13 131.46"/>
      <polygon class="cls-1" points="280.61 131.03 280.26 131.39 280.2 131.39 280.13 131.46 280.2 131.46 280.34 131.45 279.18 135.79 278.74 137.48 278.76 137.46 278.74 137.53 279.15 137.1 283.31 136.95 283.39 137.32 283.82 136.93 283.75 136.93 283.82 136.87 283.31 136.9 282.57 133.6 282.56 133.54 279.15 137.05 279.01 137.05 279.02 136.99 280 135.18 280 135.23 280.61 131.03 280.61 131.03"/>
      <path class="cls-1" d="m278.53,161.48l8.47,8.38v12.69l-5.72-9.9-2.75-11.17m-.32-5.95h-5.26l1.57,6.38-3.83-3.94-.69,3.14,18.72,32.42h-1.67c.61.35,1.22.7,1.83,1.05l2.12-2.43v-23.96l-12.79-12.66h0Z"/>
      <polygon class="cls-1" points="294.7 122.3 295.28 122.84 295.28 122.83 295.39 122.33 295.39 122.32 294.7 122.3 294.7 122.3"/>
      <polygon class="cls-1" points="298.55 122.44 299.78 123.71 299.79 123.72 299.45 122.48 298.55 122.44 298.55 122.44"/>
      <polygon class="cls-1" points="306.45 128.24 306.52 128.51 306.45 128.37 306.73 129.42 306.68 129.42 306.71 129.54 306.68 129.54 307.94 134.26 307.07 134.23 304.48 131.57 303.91 134.11 303.22 134.08 303.35 134.2 303.22 134.2 303.8 134.73 303.91 134.22 307.07 134.34 308.31 135.62 308.26 135.45 308.31 135.5 308.01 134.38 308.05 134.38 308.02 134.26 308.05 134.26 306.79 129.54 307.04 129.55 306.98 129.43 307.04 129.43 306.45 128.24 306.45 128.24"/>
      <polygon class="cls-1" points="309.99 155.94 309.92 156.01 310.05 156 309.99 155.94 309.99 155.94"/>
      <polygon class="cls-1" points="307.88 129.06 310.56 131.72 310.93 129.57 311.52 129.6 311.05 129.17 311.14 129.17 311.15 129.1 311 129.1 311 129.12 310.94 129.07 310.92 129.16 307.88 129.06 307.88 129.06"/>
      <polygon class="cls-1" points="311.11 128.55 311.1 128.59 311.24 128.72 311.25 128.67 311.11 128.55 311.11 128.55"/>
      <polygon class="cls-1" points="311.24 128.72 311.15 129.1 311.66 129.12 311.24 128.72 311.24 128.72"/>
      <polygon class="cls-1" points="311.46 148.77 311.63 149.53 311.8 148.78 311.46 148.77 311.46 148.77"/>
      <polygon class="cls-1" points="313.82 158.96 313.74 159.29 314.01 159.16 313.82 158.96 313.82 158.96"/>
      <polygon class="cls-1" points="314.7 155.54 310.68 155.54 313.82 158.96 314.7 155.54 314.7 155.54"/>
      <polygon class="cls-1" points="315.18 140.73 316.49 145.88 314.18 143.4 313.2 142.34 313.19 142.34 313.38 143.07 313.13 142.81 313.37 143.73 314.83 145.23 316.83 147.28 316.69 146.77 316.73 146.81 316.49 145.89 316.86 146.27 318 140.84 315.18 140.73 315.18 140.73"/>
      <path class="cls-1" d="m170.77,25.1c90.56,0,164.23,48.64,164.23,108.42,0,3.54-.34,7.04-.89,10.4l-5.2.2-1.7-1.63,3.63-14.31-.96,1.03-9.5.37.23-.89,3.87-15.17-3.78,4.06-6.43.23-.89-4.25,3.04-11-3.61,3.58-.98.04-.02-.07-.02.07-6.18.23-.99-4.37,2.97-11.14-10.03,10.27-2.87-5.79-2.92,5.93-10.17-10.44,2.1,7.88-1.68,7.59-6.59-.25,5.53,5.05-.68,3.09-9.34-9.63,3.11,11.69-.86,3.94-8.12-.3-2.63-2.7,3.92,14.75.23.86-6.76-.25-3.48-3.58.21.78-5.09-8.82-3.46-6-3.46,6-15.27,26.44-54.96-80.66-3.31-4.85-3.31,4.85-48.39,71.02-9.7-16.8-3.46-6-3.46,6-34.64,59.99-2.9,1.65c-3.46,1.97-6.91,3.95-10.37,5.91h0s-.02.01-.02.01c-.02.01-.04.02-.06.03h-.02c-2.65,1.53-5.3,3.04-7.95,4.55l-3.95,2.25c-8.33-4.64-19.52-12.93-27.28-26.62-.07-.13-7.34-13.29-8.7-29.93l-.03-.32c-.08-1.16-.14-2.21-.16-3.22-.02-.54-.03-1.09-.03-1.63,0-.8.02-1.68.05-2.67.03-.79.08-1.57.12-2.32.06-.9.15-1.85.28-3,.05-.45.1-.91.16-1.35.09-.67.19-1.34.29-2.02.44-2.79,1.01-5.49,1.71-8.04.01-.05.03-.09.04-.14.03-.09.06-.2.09-.34.08-.31.17-.61.26-.92l.06-.21c.03-.09.06-.18.08-.27C24.9,61.8,92.64,25.1,170.77,25.1m96.22,96.83l4.83,4.43-.09.43-4.74-4.86m60.66,9.68l-5.04,5.41-.57-.02.52-.5,5.09-4.89m5.96,15.04c-.6,3-1.35,5.83-2.14,8.41l-2.51-2.41-.8-.77.8-.77,4.65-4.47m-6.83,12.91l3.15.12c-.67,1.85-1.32,3.48-1.89,4.83l-1.03-4.06-.23-.89m-12.24,6.3l3.42,16.24c-3.51,4.74-7.52,9.17-11.93,13.17l-4.02-4.6v-21.39l5.74-2.72-2.33,9.06,9.12-9.76m7.26.01l3.73,4.01c-.05.09-.09.18-.14.27-.06.12-.13.25-.19.38-1.93,3.72-4.16,7.32-6.64,10.75l3.24-15.4M170.77,21.1C89.26,21.1,21.28,59.85,5.84,111.28c-.02.08-.05.16-.07.23-.13.45-.26.89-.38,1.34-.01.06-.03.12-.05.18,0,.02,0,.04-.02.07-.78,2.82-1.37,5.69-1.83,8.58-.11.71-.21,1.41-.31,2.12-.06.48-.12.96-.17,1.44-.12,1.05-.22,2.1-.29,3.15-.05.81-.1,1.63-.13,2.45-.03.94-.05,1.88-.05,2.82,0,.59.01,1.18.03,1.77.03,1.22.1,2.44.19,3.63,0,.03,0,.07.01.1,1.46,17.79,9.2,31.56,9.2,31.56,9.16,16.14,22.51,24.76,29.78,28.68.1.05.19.1.28.14.03.02.06.04.09.05.12.07.24.13.36.19.21-.01.47-.02.69-.04h.02c.11-.07.23-.14.35-.2.11-.06.22-.13.34-.2,4.26-2.43,8.5-4.84,12.75-7.27.02-.01.05-.03.07-.04,4.75-2.7,9.49-5.41,14.24-8.12l35.18-60.93,12.88,22.31,51.98-76.28,58.55,85.92,18.45-31.95,14.82,25.66.07.12,2.88.11-1.62-6.09,3.83,3.94.56-2.55h.01l1.58-.06v-.03s0,0,0,0l-.5-2.28,1.38-1.27-3.98-3.66,4.82.18-1.62-6.09,3.84,3.94,1.36-6.2.55,2.47-.43.39h.08l-.08.07.51-.02.96-.03v-.04h-.97s-.07-.3-.07-.3l3.55-3.26-3.98-3.65,4.83.18-1.62-6.08,3.82,3.94,1.37-6.19,1.37,6.19,1.09-1.12,1.72-3.5h0s.01,0,.01,0l1.14-2.31.39-.79.51-.47-.19-.18-3.8-3.47,4.84.18-1.62-6.07,3.45,3.54.84-1.7v-.02s1.01-2.03,1.01-2.03l.63,1.27,1.15,2.33,3.31-3.39-1.62,6.07,4.84-.18-3.65,3.33-.34.32.9.82h.01s1.25,2.56,1.25,2.56l-1.72.11-.38-.38-.24.07-.92-.94.03.1.27,1.01-.05.02.03.1h-.03l1.29,4.84h.08l-1.26-4.84.88.04,2.59,2.66.25-1.13-.05-.1.07-.3v-1.03s.3,0,.3,0l.69.03-.46-.41h.51s-.6-.52-.6-.52l.72-3.14,1.41,6.19,3.96-3.93-1.68,6.08,5-.18-4.13,3.64,3.38,3,.66-3.1,1.3,6.19,3.66-3.93-1.55,6.08,4.61-.18-3.8,3.65,3.8,3.65-1.39-.06-.07-.29-.04.16-.13-.64-.16.76h.26s-.1.47-.1.47h.26s1.04,4.96,1.04,4.96l3.66-3.93-1.54,6.07,4.6-.18-3.8,3.65,3.8,3.65-4.6-.18,1.54,6.08-3.66-3.93-1.3,6.18-1.3-6.18-3.67,3.93.55-2.14-15.74,7.45v25.42l7.32,8.38h-.79v.02c-.03.52-.59,1.23-1.63,2.07.03.02.07.04.1.06.08.04.15.09.23.13,6.53-5.07,17.4-14.85,25.52-30.48.16-.32.33-.63.48-.95.1-.19.2-.38.3-.58,0,0,9.47-17.97,9.47-37.29,0-62.08-75.32-112.42-168.23-112.42h0Z"/>
    </g>
    <path class="cls-3" d="m43.38,199.77c-.19.11-.38.22-.57.33-.33-.18-.69-.36-1.06-.56.54.08,1.08.16,1.62.23Z"/>
    <polygon class="cls-3" points="182.31 218.54 160.68 218.54 161.54 217.54 181.14 217.54 174 209.35 174 199.52 175 199.52 175 210.03 181.45 217.54 182.31 218.54"/>
    <path class="cls-3" d="m303.35,200.54h-18.01l.85-1,10.16-.02c4.58-.12,6.59.3,7,1.02Z"/>
  </g>
  <g>
    <g>
      <path class="cls-3" d="m183.74,147h-.03l.37,1.38-.34-1.38Zm.12.01h-.06s.18.53.18.53l-.12-.53Zm19.73,19.22l-5.04.18,1.69-6.07-.32.32-1.55,5.8h.1l4.68-.17-3.94,3.61,3.93,3.61h.26s.19.02.19.02l-4.16-3.65,4.16-3.65Zm-5.04,7.13h-.18l1.53,5.74.2.2.14.13-1.69-6.06h0Zm-6.81-21.44l4.71-.18.16-.14-4.83.17-.04.15Zm4.87,6.98l-4.03-3.53,3.84,3.52h.19Zm-.4,16.62l-.03-.03-1.08,4.91-.27,1.21,1.4-6.07v-.03s.01-.01.01-.01h-.02s0,.02,0,.02Zm0-11.22v.03s2.32-2.31,2.32-2.31l-2.29,2.25-1.22-5.33h-.02s1.18,5.39,1.18,5.39l.03-.03Zm-1.22-5.45h-.32s-.01.04-.01.04h.34s-.01-.04-.01-.04Zm-1.55,16.67v-.03s-.04.03-.04.03v.04l1.42,6.12v-.05s.01-.02.01-.02l-1.36-6.12-.03.03Zm.09-11.58l-.05-.05-.09.38-.39-.38.07.24.71.73-.25-.92Zm-.37-17.86l.1-.37-3.79,3.72.08.36,3.61-3.71Zm-.35,17.12l-1.7-1.75-1.04-1.06.23.84.17.17,1.19,1.17,1.34,1.31-.19-.68Zm-1.77,10.34l-.77,2.76-2.59-2.76h-.72l.04.04h-.13s.05-.04.05-.04h-.53l3.25,3.54-15.64,7.41v24.86l7.14,8.19h1.17l-7.31-8.19v-24.86l14.91-6.9-.51,1.84.14-.13.23-.23.43-1.61.81-.38-.56-.59.79-2.95h-.2Zm-3.16-26.89l-.11.5.69.03-.58-.53Zm-.05-3.2l-.6,2.6-2.88-2.58-.22.2,3.02,2.76-.04.16.5.44h.04l.11-.51-.17-.15.45-2.02-.21-.9Zm-2.58,9.63l-.33-1.24h-.02l.26,1.15.09.09Zm-1.1-1.27h-.14l1.02,1.05-.88-1.05Zm.63-.8l.16.7h-.05s.03.13.03.13h.08l-.22-.83Zm-3.68.53l-.03.16,2.94.11-.14-.15-2.76-.12h-.01Zm2.29-5.72l.32.72h-.07l.16.46.18.54-.12-.53-.11-.46h0s-.36-.73-.36-.73Zm.32,1.18h-.08l1.25,4.7-.8-3.32-.34-1.38-.11-.46h.01l-.25-.72.32,1.18Zm-2.93,5.06l-.61-.4.58.54.03-.14Zm-5.92-23.55l4.37-.16.42-.37-4.69.16-.1.37Zm4.2,6.23l.07.06.2.19.32.28-.37-.02h-.28s0,0,0,0l-.03.11h.28s.69.04.69.04l-.58-.54-.2-.19.6-2.73,1.35,6.15,3.8-3.9-1.61,6.03,4.73-.18.33-.29-4.94.19,1.65-6.08-3.91,3.93-1.4-6.19-.67,3.01-.03.13Zm-.65,2.89l.28.29.25-1.13-.23-.47-.09.34-.21.97Zm-1.91-5.18l-.14-.12.23.46.15.14-.24-.48Zm-.44,7.6l.22.78.45.47-.33-1.24h.08l-1.29-4.84.64.02-.11-.11-.56-.02h-.37s1.32,4.83,1.32,4.83h-.08s.03.11.03.11Zm.31-17.97l-3.38,3.39.19.39,3-3.08.19-.7Zm-1.51,11.9l.11.4.75.75h.27s-1.13-1.15-1.13-1.15Zm-2.63,6.07l-.17-.15-.41-.02.58.53.11-.5h-.08l-.03.14Zm-1.16-18l-.44,2,.81-1.64-.28-.54-.09.18Zm-.94,1.88l-.85,1.69-2.08-2.08,2.39,2.46.83-1.69.38-1.72-.67,1.34Zm-14.92,49.61l12.79,12.38-12.12-12.38h-.67Zm6.33,44l6.46-7.51v-.68l-7.32,8.19h.86Zm4.8-86.1l.19.18-.52.47-.63,1.24-.05.11-.89,1.76-.07.15.69-.03,1.54-3.1-.12.11.26-.55-3.75-3.44,4.78.17-1.59-5.99-.44-.44,1.66,6.07-4.94-.17,3.88,3.46Zm.58.13l-.32.65.51-.47-.19-.18Zm-3.72,7.43l1.7-3.49-.63.03-1.59,3.17-.71.71.15.68,1.08-1.1Zm-2.43,15.51l-.52.02.09.37.43-.39Zm-.26-19.39l-.34-1.49-1.33,5.88.57.59,1.1-4.98Zm-.26,19.41l-.74-3.35-.58.59.6,2.63.52-.02-.17.16h.37Zm-2.95-5.51l-1.17,4.4-.1.38.19-.2.21-.8,1.13-4.2-.42.43h.16Zm-.92-3.35l-3.95-3.63,4.79.18-1.45-5.43-.91-.92,1.66,6.08-4.94-.18,4.07,3.65-2.97,2.66-.66.59.09.37.55-.02h.29s-.04-.17-.04-.17l3.47-3.18Zm-.4,8.84h-.14l-.16.58.42-.43,3.46-.13-.03-.15-3.27.12h-.28Zm-4.51-8.29l-1.27,5.6.77.79.78-3.55h-.17s.21-.18.21-.18l.23-.2-.09-.42-.46-2.04Zm-3.82,29.26l-.17.78,3.08,3.09-.34-1.23-2.57-2.64Zm-.71-17.46l-.56.51.2.92,1.36-1.26-3.95-3.63,4.79.18-1.32-4.96-1.31-1.31,1.66,6.08-4.94-.18,4.07,3.65Zm-.58.52l-.18.17-.04.04-.6.54.2.87v.04s.04.16.04.16l.27,1.2-.54.02-1.08.03-.04.17,1.08-.04,1.59-.06-.5-2.27-.2-.87Zm-2.29,17.84l1.18,5.22.53-2.34-.84-3.78-.87.9Zm1.43-14.62l-1.11.04-.36,1.58.91.94.56-2.56Zm-5.57-1.5l1.66,6.07-4.94-.18,4.07,3.65-4.07,3.65,1.44-.05,3.82-3.51-3.95-3.62,4.79.18-1.21-4.58-1.61-1.61Zm0,19.09l1.67-1.68,1.15-4.32-1.19.04-1.63,5.96Z"/>
      <polygon class="cls-3" points="151.57 166.4 149.85 166.47 150.03 165.8 151 163.82 151.57 166.4"/>
      <polygon class="cls-3" points="154.68 166.29 152.78 168.02 153.16 166.35 154.68 166.29"/>
      <polygon class="cls-3" points="155.98 154.53 155.94 154.69 156.1 154.68 155.68 155.11 155.84 154.53 156.03 153.81 156.13 153.43 156.43 152.81 156.22 153.61 155.98 154.53"/>
      <polygon class="cls-3" points="160.25 154.53 159.88 154.54 159.56 154.55 156.1 154.68 156.26 154.52 158.93 151.77 159.51 151.18 160.25 154.53"/>
      <polygon class="cls-3" points="160.77 154.51 160.34 154.9 160.25 154.53 160.77 154.51"/>
      <polygon class="cls-3" points="167.11 131.75 166.6 132.22 166.92 131.57 167.11 131.75"/>
      <polygon class="cls-3" points="172.34 139.91 172.23 140.41 171.65 139.88 172.06 139.9 172.26 139.91 172.34 139.91"/>
      <polygon class="cls-3" points="176.1 135.25 175.83 135.24 175.19 135.22 175.16 135.11 174.97 134.38 174.86 133.98 175.99 135.14 176.1 135.25"/>
      <polygon class="cls-3" points="176.48 140.06 176.4 140.06 175.11 135.22 175.19 135.22 176.48 140.06"/>
      <polygon class="cls-3" points="176.73 141.3 176.28 140.83 175.49 140.02 176.06 140.05 176.4 140.06 176.73 141.3"/>
      <polygon class="cls-3" points="176.86 132.57 175.96 131.75 176.29 131.43 176.86 132.57"/>
      <polygon class="cls-3" points="178.94 136.79 178.69 137.92 178.41 137.63 176.1 135.25 178.22 135.33 178.71 136.32 178.94 136.79"/>
      <polygon class="cls-3" points="180.86 151.69 180.78 152.06 180.75 152.2 180.17 151.66 180.86 151.69"/>
      <polygon class="cls-3" points="183.98 147.01 183.86 147.01 183.8 147 183.71 147 183.39 145.82 183.75 146.54 183.75 146.55 183.98 147.01"/>
      <polygon class="cls-3" points="184.01 151.81 181.07 151.7 180.86 151.69 181.42 149.14 183.87 151.66 184.01 151.81"/>
      <polygon class="cls-3" points="185 151.84 184.92 151.84 184.88 151.7 183.63 147 183.71 147 184.08 148.38 184.78 151.01 185 151.84"/>
      <polygon class="cls-3" points="185.25 153.08 185.16 152.99 185.03 152.86 184.01 151.81 184.15 151.81 184.9 151.84 184.92 151.84 185.25 153.08"/>
      <polygon class="cls-3" points="187 173.58 186.87 173.59 186.94 173.52 187 173.58"/>
      <polygon class="cls-3" points="188.74 166.36 188.58 167.09 188.41 166.35 188.74 166.36"/>
      <polygon class="cls-3" points="191.78 162.81 190.32 161.31 190.3 161.23 190.07 160.39 191.11 161.45 191.66 162.57 191.78 162.81"/>
    </g>
    <polygon class="cls-3" points="172.34 139.91 172.23 140.41 171.65 139.88 172.06 139.9 172.26 139.91 172.34 139.91"/>
    <polygon class="cls-3" points="176.1 135.25 175.83 135.24 175.19 135.22 175.16 135.11 174.97 134.38 174.86 133.98 175.99 135.14 176.1 135.25"/>
    <polygon class="cls-3" points="176.73 141.3 176.28 140.83 175.49 140.02 176.06 140.05 176.4 140.06 176.73 141.3"/>
    <polygon class="cls-3" points="179.94 135.4 179.25 135.37 179.28 135.25 179.33 134.99 179.36 134.86 179.94 135.4"/>
    <polygon class="cls-3" points="180.86 151.69 180.78 152.06 180.75 152.2 180.17 151.66 180.86 151.69"/>
    <polygon class="cls-3" points="183.98 147.01 183.86 147.01 183.8 147 183.71 147 183.39 145.82 183.75 146.54 183.75 146.55 183.98 147.01"/>
    <polygon class="cls-3" points="185.25 153.08 185.16 152.99 185.03 152.86 184.01 151.81 184.15 151.81 184.9 151.84 184.92 151.84 185.25 153.08"/>
    <polygon class="cls-3" points="188.46 147.18 187.77 147.15 187.88 146.65 188.46 147.18"/>
    <polygon class="cls-3" points="180.86 151.69 180.78 152.06 180.75 152.2 180.17 151.66 180.86 151.69"/>
    <polygon class="cls-3" points="183.98 147.01 183.86 147.01 183.8 147 183.71 147 183.39 145.82 183.75 146.54 183.75 146.55 183.98 147.01"/>
    <polygon class="cls-3" points="185.25 153.08 185.16 152.99 185.03 152.86 184.01 151.81 184.15 151.81 184.9 151.84 184.92 151.84 185.25 153.08"/>
    <polygon class="cls-3" points="188.46 147.18 187.77 147.15 187.88 146.65 188.46 147.18"/>
    <polygon class="cls-3" points="188.74 166.36 188.58 167.09 188.41 166.35 188.74 166.36"/>
    <polygon class="cls-3" points="193.78 164.86 193.07 164.13 191.78 162.81 190.32 161.31 190.3 161.23 190.07 160.39 191.11 161.45 192.81 163.2 193.48 163.89 193.53 163.94 193.78 164.86"/>
    <polygon class="cls-3" points="195 158.9 194.66 158.89 194.67 158.84 194.83 158.14 194.99 158.85 195 158.9"/>
    <polygon class="cls-3" points="187 173.58 186.87 173.59 186.94 173.52 187 173.58"/>
    <polygon class="cls-3" points="188.74 166.36 188.58 167.09 188.41 166.35 188.74 166.36"/>
    <polygon class="cls-3" points="193.78 164.86 193.07 164.13 191.78 162.81 190.32 161.31 190.3 161.23 190.07 160.39 191.11 161.45 192.81 163.2 193.48 163.89 193.53 163.94 193.78 164.86"/>
    <polygon class="cls-3" points="195 158.9 194.66 158.89 194.67 158.84 194.83 158.14 194.99 158.85 195 158.9"/>
    <polygon class="cls-3" points="147.06 161.69 145.47 161.75 145.51 161.59 145.78 160.37 145.84 160.13 145.85 160.07 146.14 158.76 146.27 158.14 146.29 158.23 146.36 158.55 146.56 159.42 147.06 161.69"/>
    <polygon class="cls-3" points="151.47 160.39 150.41 164.37 147.16 167.7 148.22 163.72 151.47 160.39"/>
    <polygon class="cls-3" points="154.68 166.29 152.78 168.02 153.16 166.35 154.68 166.29"/>
    <polygon class="cls-3" points="147.06 161.69 145.47 161.75 144.39 161.79 144.01 161.81 143.95 161.81 145.74 160.17 145.85 160.07 145.88 160.04 146.56 159.42 147.06 161.69"/>
    <polygon class="cls-3" points="151.47 160.39 150.41 164.37 147.16 167.7 148.22 163.72 151.47 160.39"/>
    <polygon class="cls-3" points="152.99 149.19 152.47 149.21 152.66 149.04 152.85 148.87 152.9 148.82 152.91 148.87 152.95 149.03 152.99 149.19"/>
    <polygon class="cls-3" points="157.56 148.61 156.43 152.81 156.22 153.61 155.98 154.53 155.94 154.69 156.1 154.68 155.68 155.11 155.84 154.53 156.03 153.81 156.13 153.43 157.3 149.03 157.14 149.04 157.56 148.61"/>
    <polygon class="cls-3" points="160.77 154.51 160.34 154.9 160.25 154.53 160.77 154.51"/>
    <polygon class="cls-3" points="152.99 149.19 152.47 149.21 152.66 149.04 152.85 148.87 152.9 148.82 152.91 148.87 152.95 149.03 152.99 149.19"/>
    <polygon class="cls-3" points="157.56 148.61 156.43 152.81 156.22 153.61 155.98 154.53 155.94 154.69 156.1 154.68 155.68 155.11 155.84 154.53 156.03 153.81 156.13 153.43 157.3 149.03 157.14 149.04 157.56 148.61"/>
    <polygon class="cls-3" points="160.77 154.51 160.34 154.9 160.25 154.53 160.77 154.51"/>
    <polygon class="cls-3" points="166.6 132.22 165.06 135.32 164.37 135.35 163.2 135.4 163.12 135.4 165.38 133.33 166.48 132.33 166.6 132.22"/>
    <polygon class="cls-3" points="172.27 123.27 171.75 122.23 171.64 122 171.44 122.41 170.63 124.05 171.07 122.05 171.39 120.57 171.53 119.95 172.27 123.27"/>
    <polygon class="cls-3" points="172.34 139.91 172.23 140.41 171.65 139.88 172.06 139.9 172.26 139.91 172.34 139.91"/>
    <polygon class="cls-3" points="176.1 135.25 175.83 135.24 175.19 135.22 175.16 135.11 174.97 134.38 174.86 133.98 175.99 135.14 176.1 135.25"/>
    <polygon class="cls-3" points="176.73 141.3 176.28 140.83 175.49 140.02 176.06 140.05 176.4 140.06 176.73 141.3"/>
    <polygon class="cls-3" points="179.94 135.4 179.25 135.37 178.97 135.36 178.22 135.33 177.27 133.42 176.86 132.58 179.09 134.61 179.16 134.67 179.36 134.86 179.94 135.4"/>
    <polygon class="cls-3" points="187 173.58 186.87 173.59 186.94 173.52 187 173.58"/>
  </g>
  <g>
    <path class="cls-3" d="m81.34,151.9l4.07-3.62-4.93.18,1.66-6.04-3.92,3.91-1.22-5.38v-.59h-.34s-1.2,5.46-1.2,5.46l-.38-.39.25.93-2.01-2.06-.02-.02-1.45-1.48-.25-.93,1.04,1.06,2.43,2.5-1.38-5.18,2.97.1.17-.76.17.77,1.55.06-4.01-3.67,4.01-3.67-4.86.18,1.63-6.12-3.86,3.95-1.37-6.22-.7,3.15.59.54-.69-.03-.57,2.56-2.61-2.67,3.17.12h0l.1-.51-3.42-3.13,4.01-3.68-4.86.18,1.63-6.11-3.85,3.95-1.37-6.22-.7,3.15.59.54-.7-.03-.32,1.42-.25,1.13-2.61-2.67-.91-.03h-.44l1.06,3.95.28,1.05h-.1l.35,1.31-1.31-1.34.96.03-1.37-5.12h.08s-.35-1.3-.35-1.3l1.31,1.34,2.25.08h-2.26l-1.25-2.75-.83-.85.31-.32,3.35-3.43-4.44.18,1.49-6.25-3.04,3.49-1.06-2.4-.57-1.3-.93,2.09v.02s-.77,1.74-.77,1.74l-3.17-3.65,1.48,6.25-4.43-.18,3.48,3.57.18.18-.47.48-.71,1.6-.71,1.6-1.58,3.61-1,1.14-1.26-6.36-1.26,6.36-3.51-4.04,1.49,6.26-4.44-.18,3.67,3.75-3.27,3.35.08.38,3.82-.16.38-.44-1.11,4.32h0s-.39,1.93-.39,1.93h.15s3.13-3.61,3.13-3.61l.68,3.44.48-.02-.39.4h0s-.08-.38-.08-.38l-3.81.16-.38.44.41-1.73,1.08-4.52-.14-.18h.27v.6l-3.41,3.48-.74-3.33-.51.02.43-.39-.54-2.45-1.36,6.15-3.82-3.91,1.62,6.04-4.81-.18,3.97,3.62-1.38,1.26.5,2.25-1.57.06-.57,2.56-3.82-3.91,1.62,6.04-4.81-.18,3.97,3.62-3.97,3.63,4.81-.18-1.62,6.04,3.82-3.91,1.36,6.15,1.36-6.15,3.82,3.91-1.57-5.85h6.03l12.19,12.38v23.43l-6.97,8.19h1.68c4.36-2.42,8.73-4.84,13.09-7.26l-.81-.92v-24.86l15.64-7.42-3.25-3.54h4.74l-1.61,5.85,3.91-3.91,1.4,6.15,1.39-6.15,3.92,3.91-1.66-6.04,4.93.18-4.07-3.63Zm-50.46-3.83l.18-.66.38-1.43-3.25,3.33,1.06-3.98,3.25-3.33-1.06,3.98.59-.6v.05s.58,2.58.58,2.58l-1.73.07Zm3.12,1.46h0s0,0,0,0l.38-1.68,1.52-.06-1.89,1.73Zm19-27.52h0s-.29-.26-.29-.26l-.29-.27h0s.69.02.69.02l-.11.51Zm12.03,11.39l-3.16-.12-.11.51-.58-.53.69.02.57-2.54,2.59,2.66.9.03-1.29-4.84h.08s-.32-1.18-.32-1.18l.59,1.19h0s-.27,0-.27,0l1.29,4.84h-.08s.33,1.23.33,1.23l-1.24-1.27Zm2.86,21.78l.08-.07.06.07h-.14Zm1.54-7.65h.34s-.16.77-.16.77l-.17-.77Z"/>
    <polygon class="cls-3" points="32.04 145.42 32.61 148 30.88 148.07 31.06 147.4 32.04 145.42"/>
    <polygon class="cls-3" points="34.19 147.95 35.72 147.89 33.82 149.62 34.19 147.95"/>
    <polygon class="cls-3" points="36.97 136.29 37.13 136.28 36.72 136.71 37.16 135.03 37.47 134.41 36.97 136.29"/>
    <polygon class="cls-3" points="40.55 132.78 41.29 136.13 37.13 136.28 40.55 132.78"/>
    <polygon class="cls-3" points="41.8 136.11 41.37 136.5 41.29 136.13 41.8 136.11"/>
    <polygon class="cls-3" points="47.95 113.17 48.15 113.35 47.63 113.82 47.95 113.17"/>
    <polygon class="cls-3" points="52.68 121.48 53.37 121.51 53.26 122.01 52.68 121.48"/>
    <polygon class="cls-3" points="55.89 115.58 57.13 116.85 56.22 116.82 55.89 115.58"/>
    <polygon class="cls-3" points="56.14 116.82 56.22 116.82 57.51 121.66 57.43 121.66 56.14 116.82"/>
    <polygon class="cls-3" points="56.53 121.62 57.43 121.66 57.77 122.9 56.53 121.62"/>
    <polygon class="cls-3" points="57.89 114.17 56.99 113.35 57.33 113.04 57.89 114.17"/>
    <polygon class="cls-3" points="59.25 116.93 59.97 118.39 59.72 119.52 57.13 116.85 59.25 116.93"/>
    <polygon class="cls-3" points="61.2 133.26 61.89 133.29 61.78 133.8 61.2 133.26"/>
    <polygon class="cls-3" points="65.02 128.61 64.74 128.6 64.43 127.42 65.02 128.61"/>
    <polygon class="cls-3" points="62.46 130.74 65.05 133.41 61.89 133.29 62.46 130.74"/>
    <polygon class="cls-3" points="66.04 133.44 65.96 133.44 64.67 128.6 64.74 128.6 66.04 133.44"/>
    <polygon class="cls-3" points="65.96 133.44 66.29 134.68 65.05 133.41 65.96 133.44"/>
    <polygon class="cls-3" points="67.97 155.12 68.03 155.18 67.9 155.19 67.97 155.12"/>
    <polygon class="cls-3" points="69.44 147.95 69.78 147.96 69.61 148.71 69.44 147.95"/>
    <polygon class="cls-3" points="72.81 144.41 71.36 142.91 71.11 141.99 72.14 143.05 72.81 144.41"/>
  </g>
  <polygon class="cls-3" points="52.68 121.48 53.37 121.51 53.26 122.01 52.68 121.48"/>
  <polygon class="cls-3" points="57.13 116.85 56.22 116.82 55.89 115.58 57.13 116.85"/>
  <polygon class="cls-3" points="57.43 121.66 57.77 122.9 56.53 121.62 57.43 121.66"/>
  <polygon class="cls-3" points="60.4 116.46 60.98 117 60.29 116.97 60.4 116.46"/>
  <polygon class="cls-3" points="61.2 133.26 61.89 133.29 61.78 133.8 61.2 133.26"/>
  <polygon class="cls-3" points="64.43 127.42 65.02 128.61 64.74 128.6 64.43 127.42"/>
  <polygon class="cls-3" points="65.96 133.44 66.29 134.68 65.05 133.41 65.96 133.44"/>
  <polygon class="cls-3" points="69.5 128.78 68.81 128.75 68.92 128.25 69.5 128.78"/>
  <polygon class="cls-3" points="61.2 133.26 61.89 133.29 61.78 133.8 61.2 133.26"/>
  <polygon class="cls-3" points="64.43 127.42 65.02 128.61 64.74 128.6 64.43 127.42"/>
  <polygon class="cls-3" points="65.96 133.44 66.29 134.68 65.05 133.41 65.96 133.44"/>
  <polygon class="cls-3" points="69.5 128.78 68.81 128.75 68.92 128.25 69.5 128.78"/>
  <polygon class="cls-3" points="69.44 147.95 69.78 147.96 69.61 148.71 69.44 147.95"/>
  <polygon class="cls-3" points="74.56 145.54 74.81 146.46 72.81 144.41 71.36 142.91 71.11 141.99 72.14 143.05 74.56 145.54"/>
  <polygon class="cls-3" points="76.48 140.5 76.14 140.49 76.31 139.74 76.48 140.5"/>
  <polygon class="cls-3" points="67.97 155.12 68.03 155.18 67.9 155.19 67.97 155.12"/>
  <polygon class="cls-3" points="69.44 147.95 69.78 147.96 69.61 148.71 69.44 147.95"/>
  <polygon class="cls-3" points="74.56 145.54 74.81 146.46 72.81 144.41 71.36 142.91 71.11 141.99 72.14 143.05 74.56 145.54"/>
  <polygon class="cls-3" points="76.48 140.5 76.14 140.49 76.31 139.74 76.48 140.5"/>
  <polygon class="cls-3" points="27.59 141.02 28.09 143.29 26.51 143.35 26.88 141.67 27.31 139.74 27.59 141.02"/>
  <polygon class="cls-3" points="29.26 145.32 32.5 141.99 31.44 145.97 28.2 149.3 29.26 145.32"/>
  <polygon class="cls-3" points="35.72 147.89 33.82 149.62 34.19 147.95 35.72 147.89"/>
  <polygon class="cls-3" points="27.59 141.02 28.09 143.29 26.51 143.35 24.98 143.4 26.88 141.67 27.59 141.02"/>
  <polygon class="cls-3" points="29.26 145.32 32.5 141.99 31.44 145.97 28.2 149.3 29.26 145.32"/>
  <polygon class="cls-3" points="33.94 130.42 34.02 130.79 33.51 130.81 33.94 130.42"/>
  <polygon class="cls-3" points="38.17 130.64 38.59 130.21 37.47 134.41 36.97 136.29 37.13 136.28 36.72 136.71 37.16 135.03 38.34 130.63 38.17 130.64"/>
  <polygon class="cls-3" points="41.8 136.11 41.37 136.5 41.29 136.13 41.8 136.11"/>
  <polygon class="cls-3" points="33.94 130.42 34.02 130.79 33.51 130.81 33.94 130.42"/>
  <polygon class="cls-3" points="38.17 130.64 38.59 130.21 37.47 134.41 36.97 136.29 37.13 136.28 36.72 136.71 37.16 135.03 38.34 130.63 38.17 130.64"/>
  <polygon class="cls-3" points="41.8 136.11 41.37 136.5 41.29 136.13 41.8 136.11"/>
  <polygon class="cls-3" points="44.16 117 47.63 113.82 46.1 116.92 44.16 117"/>
  <polygon class="cls-3" points="53.3 104.87 52.67 103.6 51.66 105.65 52.57 101.55 53.3 104.87"/>
  <polygon class="cls-3" points="52.68 121.48 53.37 121.51 53.26 122.01 52.68 121.48"/>
  <polygon class="cls-3" points="57.13 116.85 56.22 116.82 55.89 115.58 57.13 116.85"/>
  <polygon class="cls-3" points="57.43 121.66 57.77 122.9 56.53 121.62 57.43 121.66"/>
  <polygon class="cls-3" points="60.98 117 60.29 116.97 59.25 116.93 57.89 114.17 60.4 116.46 60.98 117"/>
  <polygon class="cls-3" points="68.03 155.18 67.9 155.19 67.97 155.12 68.03 155.18"/>
  <g>
    <path class="cls-3" d="m318.32,140.85h-.06l-.1.46h.26s-.1-.46-.1-.46Zm.01-.29l-.04.16.03.13h.08l-.07-.29Zm-3.51,4.19h-.01s-.47-.51-.47-.51l-.91-.98-.05-.19-.25-.26.24.92,1.46,1.5,2,2.05-.14-.51-1.87-2.02Zm-1.08,14.54l.27-.13-.19-.2-.08.33Zm-2.49-30.62l-.14-.12v.04s.13.13.13.13v-.05Zm-.1.5v-.07s-.14,0-.14,0v.02l-.06-.05-.02.09h.08v.02l-.07.39.59.03-.47-.43h.09Zm-3.17,5.2l.29,1.08.05.05-.3-1.12h-.04Zm-1.21-4.84l1.26,4.72h.03l-1.26-4.72h-.03Zm.31,4.69l-2.59-2.66-.57,2.54-.69-.03.13.12.54.02h.02l.02-.11.55-2.42,2.48,2.54.11.11h.11l.79.03-.03-.11-.87-.03Zm-.09-4.8h.06l-.59-1.19.07.27.46.92Zm-.3-.01l.03.12h.05l-.03-.12h-.05Zm-2.23,71.12h.08v-.02c-.02-.08-.05-.15-.08.02Zm-8.1-1.02l-10.16.02-.85,1h18.01c-.41-.72-2.42-1.14-7-1.02Zm6.65-81.7l-.46-.41h-.15s-.39-.02-.39-.02v.39h.31s.69.04.69.04Zm-1.73-.28h.01l-1.36-2.54,1.25,2.55h.1Zm-1.48,6.17l-.34-1.24.33,1.23h0Zm-1.63-6.07l1.29,4.84-1.26-4.84h-.03Zm0-.1h.08l.03.1.88.04,2.59,2.66.25-1.13-.05-.1-.19.83-2.27-2.25-.41-.41-.24.07-.6.16-.29-1,.27,1.01-.05.02Zm-8.9-2.11l-1.15,2.31h.01l1.14-2.31Zm-.46,79.25l-.2.23-3.92,4.49-.99,1.14h.55l.95-1.36,3.75-4.42s-.09-.05-.14-.08Zm-5.05-57.75l-.36.33-.07-.31v-.05h-.02l-4.1.15h-.05l-.05.05-.34.36-.02.07.41-.43,4.16-.15.08.37.43-.39h-.07Zm-3.55-5.47h.14s.02-.08.02-.08h-.09s.34-.35.34-.35l-.35.36h-.06l-.07.07h.07Zm-1.18,5.53l-.03.06h.02v-.06Zm-3.17,13.45l.22-.2.31-1.38,1.25-.05.11-.1-1.52.06-.37,1.67Zm1.16-18.86v-.04h-.97s-.42.02-.42.02l-.08.07.51-.02.96-.03Zm-8.46,12.56h0v.03s0,0,0,0l1.58-.06v-.03s-1.57.06-1.57.06Zm-3.67,8.11l-.06-.11-1.94-3.38h-.08l-1.87-.07.02.02,3.87,3.55h0s.09.09.09.09l-.03.02-3.95,3.64,4.83-.18-1.61,6.06h-.01v.03l3.83-3.94,1.36,6.18.66-2.93h0s.02-.11.02-.11l-.02-.04-5.11-8.83Z"/>
    <path class="cls-3" d="m322.38,151.88l3.8-3.65-4.6.18,1.54-6.07-3.66,3.93-1.04-4.95h-.26s.1-.47.1-.47h-.26s-1.14,5.42-1.14,5.42l-.37-.38.24.92-.04-.04.14.51-2-2.05-1.46-1.5-.24-.92.25.26-.19-.73h.01l.98,1.06,2.31,2.48-1.31-5.15,2.82.11.16-.76.13.64.04-.16.07.29,1.39.06-3.8-3.65,3.8-3.65-4.61.18,1.55-6.08-3.66,3.93-1.3-6.19-.66,3.1.14.12v.05s.41.4.41.4l-.51-.02v.07h-.1l.47.43-.59-.03-.37,2.15-2.68-2.66,3.04.1.02-.09.06.05v-.02h.15l.09-.38-.14-.13v-.04s-3.37-3-3.37-3l4.13-3.64-5,.18,1.68-6.08-3.96,3.93-1.41-6.19-.72,3.14.6.53h-.51s.46.4.46.4l-.69-.03h-.31s.01,1.02.01,1.02l-.07.3.05.1-.25,1.13-2.59-2.66-.88-.04,1.26,4.84h-.08l.34,1.24h0s-1.23-1.28-1.23-1.28l.9.04-1.29-4.84h.03l-.03-.1.05-.02-.27-1.01-.03-.1.92.94.24-.07.38.38,1.72-.11-1.25-2.55h-.01s-.9-.83-.9-.83l.34-.32,3.65-3.33-4.84.18,1.62-6.07-3.31,3.39-1.15-2.33-.63-1.27-1,2.03v.02s-.85,1.7-.85,1.7l-3.45-3.54,1.62,6.07-4.84-.18,3.8,3.47.19.18-.51.47-.39.79-1.14,2.31h-.01s-1.72,3.51-1.72,3.51l-1.09,1.12-1.37-6.19-1.37,6.19-3.82-3.94,1.62,6.08-4.83-.18,3.98,3.65-3.55,3.26.07.31h.97s0,.03,0,.03l3.13-.12.07-.07h.06l.35-.36-.61,4.2v-.05l-.98,1.81v.06s.13,0,.13,0l3.41-3.51v.06s.75,3.3.75,3.3l.51-.03-.07.06h.07l-.43.39-.08-.37-4.16.15-.41.43.02-.07-.02.02.44-1.69,1.16-4.34h-.14s-.07.01-.07.01l-3.35,3.44.22-3.32-.96.03-.51.02.08-.07h-.08l.43-.39-.55-2.47-1.36,6.2-3.84-3.94,1.62,6.09-4.82-.18,3.98,3.66-1.38,1.27.5,2.28h-.01v.03s-1.57.06-1.57.06h-.01l-.56,2.55-3.83-3.94,1.62,6.09-2.88-.11,1.94,3.38.06.11,5.11,8.83.02.04.69-3.14,3.83,3.94-1.57-6.38h5.26l12.79,12.66v23.96l-2.12,2.43-.08.09s.09.05.14.08l-3.75,4.42-.95,1.36h1.1l.85-1,10.16-.02c4.58-.12,6.59.3,7,1.02h1.1c.03-.17.06-.1.08-.02,0,0,0,.01,0,.02h.79l-7.32-8.38v-25.42l15.74-7.45.08-.33-3.14-3.42h4.02l-.88,3.42.19.2-.27.13-.55,2.14,3.67-3.93,1.3,6.18,1.3-6.18,3.66,3.93-1.54-6.08,4.6.18-3.8-3.65Zm-49.48-2.99l.18-.67.38-1.43-3.25,3.33,1.06-3.98,3.25-3.33-1.06,3.98.59-.6v.05s.58,2.58.58,2.58l-1.73.07Zm3.1,1.64h0s-.01.01-.01.01l.07-.3-.22.2.37-1.67,1.52-.06-.11.1h.27s-1.89,1.72-1.89,1.72Zm19.39-28.21h0s-.11.51-.11.51h0s-.58-.53-.58-.53l.69.02Zm12.92,13.3l-1.24-1.28-3.16-.12-.11.51-.58-.53h.13l-.13-.12.69.03.57-2.54,2.59,2.66.87.03-1.26-4.72h.03l-.03-.12h.05l-.28-1.05.07.14-.07-.27.59,1.19h-.06l.06.12h-.25s1.26,4.71,1.26,4.71h-.03l.03.12h-.04l.3,1.12-.05-.05.05.17Zm1.61,20.39l.07-.07.06.06h-.13Zm1.71-6.47l-.17-.76h.34s-.17.76-.17.76Z"/>
    <polygon class="cls-3" points="274.63 148.82 272.9 148.89 273.08 148.22 274.06 146.24 274.63 148.82"/>
    <polygon class="cls-3" points="277.73 148.71 277.62 148.81 276.06 150.24 275.84 150.44 276.21 148.77 277.73 148.71"/>
    <polygon class="cls-3" points="279.1 137.1 279.15 137.1 278.74 137.53 278.76 137.46 279.18 135.85 279.49 135.23 279.02 136.99 279.01 137.05 278.99 137.11 279.1 137.1"/>
    <polygon class="cls-3" points="283.31 136.95 279.15 137.1 279.2 137.05 282.57 133.6 283.3 136.9 283.31 136.95"/>
    <polygon class="cls-3" points="283.82 136.93 283.39 137.32 283.31 136.95 283.32 136.95 283.75 136.93 283.82 136.93"/>
    <polygon class="cls-3" points="290.16 114.17 289.65 114.64 289.97 113.99 290.16 114.17"/>
    <polygon class="cls-3" points="295.39 122.33 295.28 122.83 294.7 122.3 295.39 122.33"/>
    <polygon class="cls-3" points="299.15 117.68 298.27 117.64 298.24 117.64 298.21 117.54 298.21 117.52 297.94 116.51 297.91 116.41 298.83 117.35 299.15 117.68"/>
    <polygon class="cls-3" points="299.53 122.48 299.45 122.48 298.16 117.64 298.24 117.64 299.53 122.48"/>
    <polygon class="cls-3" points="299.79 123.72 299.78 123.71 298.55 122.44 299.45 122.48 299.79 123.72"/>
    <polygon class="cls-3" points="299.91 114.99 299.01 114.17 299.35 113.86 299.91 114.99"/>
    <polygon class="cls-3" points="301.99 119.21 301.74 120.34 299.15 117.68 299.48 117.69 301.27 117.75 301.94 119.11 301.99 119.21"/>
    <polygon class="cls-3" points="303.91 134.11 303.89 134.22 303.8 134.62 303.35 134.2 303.22 134.08 303.91 134.11"/>
    <polygon class="cls-3" points="307.04 129.43 306.98 129.43 306.76 129.42 306.52 128.51 306.45 128.24 307.04 129.43"/>
    <polygon class="cls-3" points="307.07 134.23 306.96 134.23 303.93 134.11 303.91 134.11 304.48 131.57 307.07 134.23"/>
    <polygon class="cls-3" points="308.05 134.26 307.98 134.26 306.71 129.54 306.68 129.42 306.76 129.42 306.79 129.54 308.05 134.26"/>
    <polygon class="cls-3" points="308.31 135.5 308.26 135.45 307.18 134.34 307.07 134.23 307.94 134.26 307.98 134.26 308.01 134.38 308.31 135.5"/>
    <polygon class="cls-3" points="310.05 156 309.92 156.01 309.99 155.94 310.05 156"/>
    <polygon class="cls-3" points="311.8 148.78 311.63 149.53 311.46 148.77 311.8 148.78"/>
    <polygon class="cls-3" points="314.83 145.23 313.37 143.73 313.13 142.81 313.38 143.07 314.16 143.87 314.34 144.24 314.83 145.23"/>
  </g>
  <polygon class="cls-3" points="295.39 122.33 295.28 122.83 294.7 122.3 295.39 122.33"/>
  <polygon class="cls-3" points="299.15 117.68 298.27 117.64 298.24 117.64 298.21 117.54 298.21 117.52 297.94 116.51 297.91 116.41 298.83 117.35 299.15 117.68"/>
  <polygon class="cls-3" points="299.79 123.72 299.78 123.71 298.55 122.44 299.45 122.48 299.79 123.72"/>
  <polygon class="cls-3" points="303 117.82 302.31 117.79 302.39 117.4 302.41 117.29 302.54 117.41 303 117.82"/>
  <polygon class="cls-3" points="303.91 134.11 303.89 134.22 303.8 134.62 303.35 134.2 303.22 134.08 303.91 134.11"/>
  <polygon class="cls-3" points="307.04 129.43 306.98 129.43 306.76 129.42 306.52 128.51 306.45 128.24 307.04 129.43"/>
  <polygon class="cls-3" points="308.31 135.5 308.26 135.45 307.18 134.34 307.07 134.23 307.94 134.26 307.98 134.26 308.01 134.38 308.31 135.5"/>
  <polygon class="cls-3" points="311.52 129.6 310.93 129.57 310.83 129.57 310.92 129.16 310.94 129.07 311 129.12 311.05 129.17 311.52 129.6"/>
  <polygon class="cls-3" points="303.91 134.11 303.89 134.22 303.8 134.62 303.35 134.2 303.22 134.08 303.91 134.11"/>
  <polygon class="cls-3" points="307.04 129.43 306.98 129.43 306.76 129.42 306.52 128.51 306.45 128.24 307.04 129.43"/>
  <polygon class="cls-3" points="308.31 135.5 308.26 135.45 307.18 134.34 307.07 134.23 307.94 134.26 307.98 134.26 308.01 134.38 308.31 135.5"/>
  <polygon class="cls-3" points="311.52 129.6 310.93 129.57 310.83 129.57 310.92 129.16 310.94 129.07 311 129.12 311.05 129.17 311.52 129.6"/>
  <polygon class="cls-3" points="311.8 148.78 311.63 149.53 311.46 148.77 311.8 148.78"/>
  <polygon class="cls-3" points="316.83 147.28 314.83 145.23 313.37 143.73 313.13 142.81 313.38 143.07 314.16 143.87 316.58 146.36 316.69 146.77 316.83 147.28"/>
  <polygon class="cls-3" points="318.5 141.32 318.42 141.32 318.16 141.31 318.26 140.85 318.29 140.72 318.33 140.56 318.4 140.85 318.5 141.32"/>
  <polygon class="cls-3" points="310.05 156 309.92 156.01 309.99 155.94 310.05 156"/>
  <polygon class="cls-3" points="311.8 148.78 311.63 149.53 311.46 148.77 311.8 148.78"/>
  <polygon class="cls-3" points="316.83 147.28 314.83 145.23 313.37 143.73 313.13 142.81 313.38 143.07 314.16 143.87 316.58 146.36 316.69 146.77 316.83 147.28"/>
  <polygon class="cls-3" points="318.5 141.32 318.42 141.32 318.16 141.31 318.26 140.85 318.29 140.72 318.33 140.56 318.4 140.85 318.5 141.32"/>
  <polygon class="cls-3" points="270.11 144.11 268.53 144.17 268.54 144.14 268.9 142.49 269.33 140.56 269.61 141.84 270.1 144.08 270.11 144.11"/>
  <polygon class="cls-3" points="274.52 142.81 273.46 146.79 270.21 150.12 271.28 146.14 274.52 142.81"/>
  <polygon class="cls-3" points="277.73 148.71 277.62 148.81 276.06 150.24 275.84 150.44 276.21 148.77 277.73 148.71"/>
  <polygon class="cls-3" points="270.11 144.11 268.53 144.17 268.52 144.17 267 144.22 268.9 142.49 269.61 141.84 270.1 144.08 270.11 144.11"/>
  <polygon class="cls-3" points="274.52 142.81 273.46 146.79 270.21 150.12 271.28 146.14 274.52 142.81"/>
  <polygon class="cls-3" points="276.04 131.61 275.53 131.63 275.61 131.56 275.96 131.24 276.03 131.55 276.04 131.61"/>
  <polygon class="cls-3" points="279.01 137.05 278.99 137.11 279.1 137.1 279.15 137.1 278.74 137.53 278.76 137.46 279.18 135.85 280.36 131.45 280.34 131.45 280.2 131.46 280.19 131.46 280.26 131.39 280.61 131.03 279.49 135.23 279.02 136.99 279.01 137.05"/>
  <polygon class="cls-3" points="283.82 136.93 283.39 137.32 283.31 136.95 283.32 136.95 283.75 136.93 283.82 136.93"/>
  <polygon class="cls-3" points="276.04 131.61 275.53 131.63 275.61 131.56 275.96 131.24 276.03 131.55 276.04 131.61"/>
  <polygon class="cls-3" points="279.01 137.05 278.99 137.11 279.1 137.1 279.15 137.1 278.74 137.53 278.76 137.46 279.18 135.85 280.36 131.45 280.34 131.45 280.2 131.46 280.19 131.46 280.26 131.39 280.61 131.03 279.49 135.23 279.02 136.99 279.01 137.05"/>
  <polygon class="cls-3" points="283.82 136.93 283.39 137.32 283.31 136.95 283.32 136.95 283.75 136.93 283.82 136.93"/>
  <polygon class="cls-3" points="289.65 114.64 289.26 115.43 288.12 117.74 288.11 117.74 286.18 117.82 289.65 114.64"/>
  <polygon class="cls-3" points="295.32 105.69 294.69 104.42 293.69 106.45 294.59 102.37 295.32 105.69"/>
  <polygon class="cls-3" points="295.39 122.33 295.28 122.83 294.7 122.3 295.39 122.33"/>
  <polygon class="cls-3" points="299.15 117.68 298.27 117.64 298.24 117.64 298.21 117.54 298.21 117.52 297.94 116.51 297.91 116.41 298.83 117.35 299.15 117.68"/>
  <polygon class="cls-3" points="299.79 123.72 299.78 123.71 298.55 122.44 299.45 122.48 299.79 123.72"/>
  <polygon class="cls-3" points="303 117.82 302.31 117.79 302 117.78 301.27 117.75 301.17 117.55 299.92 115 302.41 117.29 302.54 117.41 303 117.82"/>
  <polygon class="cls-3" points="310.05 156 309.92 156.01 309.99 155.94 310.05 156"/>
  <path class="cls-3" d="m230.2,40.58c.83.7,5.5,4.79,5.7,11.08.03.99.09,3.99-1.65,7.13-.4.72-1.17,1.96-2.61,3.31-4.91,4.62-11.28,4.72-11.22,5.2.11.85,12.34,3.83,18.15-3.07,4.98-5.91,3.73-17.23-5.11-23.49,0,0-6.6-3.07-6.66-3.17,0,0,0,0,0,0,0,0,1.39,1.22,3.39,3.01Z"/>
  <path class="cls-3" d="m187.68,173.54l2.59,2.76.77-2.76h-3.36Zm115.55,29.41l-.33-.18s.07-.06.1-.08c1.06-.88,1.59-1.61,1.53-2.13v-.04c-.02-.08-.05-.15-.08.02h-20.21l.95-1.36,3.75-4.42s-.09-.05-.14-.08c-.58-.33-1.17-.68-1.75-1.14h1.67l-18.74-32.31-.66,2.93-1.36-6.18-3.82,3.91h-.01s1.62-6.06,1.62-6.06l-4.83.18,3.95-3.63h0s-.06-.11-.06-.11l-3.89-3.56h.02l1.86.07v-.02s-14.82-25.65-14.82-25.65l-18.45,31.96-58.55-85.92-51.98,76.27-12.88-22.31-35.18,60.94c-4.75,2.71-9.48,5.41-14.23,8.11,0,.01-.01.01-.01.01-3.56,2.03-7.1,4.06-10.67,6.08,0,.01-.01.01-.01.01-.71.41-1.43.81-2.14,1.22-.17.1-.33.19-.5.29-.19.11-.38.22-.57.33-.33-.18-.69-.36-1.06-.56-7.27-3.92-20.62-12.54-29.78-28.68,0,0-7.78-13.84-9.2-31.7-.01-.03-.01-.07-.01-.1-.09-1.19-.16-2.4-.19-3.63-.02-.59-.03-1.18-.03-1.77,0-.94.02-1.88.05-2.82.03-.82.08-1.64.13-2.45.07-1.06.18-2.1.29-3.15.05-.48.11-.96.17-1.44.09-.71.2-1.42.31-2.12.54-3.39,1.3-6.74,2.28-10.03-.13.4-.25.8-.38,1.2-.01.06-.03.12-.05.18,0,.02-.01.04-.02.07-2.18,7.26-3.32,14.78-3.32,22.48,0,62.41,75.2,113.02,167.96,113.02,69.06,0,128.37-28.07,154.14-68.19-7.27,11.08-15.52,18.4-20.87,22.54Zm-100.08-29.43l-4.6-.16h-.08l1.63,5.94.03.09-.2-.2-3.69-3.68h0s-.02-.02-.02-.02v.03s-1.12,4.88-1.12,4.88l-.27,1.21v.02s-1.39-6.11-1.39-6.11v-.03s-.04.03-.04.03l-3.66,3.64-.23.23.03-.09.48-1.76.11-.42.03-.1.18-.65.78-2.83h-4.73l3.25,3.54-15.64,7.41v24.86l7.14,8.19h-20.07l6.93-8.19v-23.43l-12.12-12.38h-5.99l1.56,5.85-1.23-1.26-2.57-2.64-.17.78-1.18,5.36-.52-2.36-.84-3.78-.87.9-2.92,3,.45-1.71,1.15-4.32-1.19.04-3.6.13.13-.12,3.82-3.51-3.95-3.62,4.79.18-1.21-4.58-.39-1.46,2.88,2.97.91.94.56-2.56-1.11.04-.4.02.02-.02,1.74-1.6.09-.08.03-.03v-.06s.31-1.32.31-1.32l.11-.49v-.05s.09.36.09.36l.2.92,1.36-1.26-3.95-3.63,4.79.18-1.32-4.96-.29-1.07,3.03,3.11.77.79.78-3.55.04-.18.14-.62.39-1.79.36,1.62.17.77v.05s.06-.05.06-.05l3.47-3.18-3.95-3.63,4.79.18-1.45-5.43-.16-.61,3.23,3.31.57.59,1.1-4.98.25-1.16,1.21,5.46.15.68,1.08-1.1,1.7-3.49-.63.03-1.28.05.21-.19,2.13-1.96,1.1-1.01.05-.1.26-.55-3.75-3.44,4.78.17-1.59-5.99v-.04s1.02,1.06,1.02,1.06l2.39,2.46.83-1.69.38-1.72.52-2.35.07.33.36,1.66.29,1.31.95,1.93.19.39,3-3.08.29-.3-1.51,5.66-.1.37,4.37-.16h.41s-3.61,3.3-3.61,3.3v.02s.15.28.15.28h0s.18.38.18.38l.23.46.15.14.53.49,1.8,1.64.06-.26.03-.13.6-2.73,1.35,6.15,3.8-3.9-1.61,6.03,4.73-.18h.06l-3.74,3.43-.22.2,3.02,2.76.36.33.08-.39.45-2.02.15-.7,1.28,5.78.08.36,3.61-3.71.18-.19-1.56,5.89-.04.15,4.71-.18h.08l-3.95,3.63,3.84,3.52.11.1-1.51-.06h-.02s1.21,5.36,1.21,5.36v.03s2.32-2.31,2.32-2.31l1.4-1.4.2-.2v.04s-1.66,6-1.66,6l4.68-.17h.26s-4.07,3.61-4.07,3.61l4.06,3.62h0s-.26,0-.26,0Zm120.95,6.89c.5-.77,1-1.55,1.49-2.35-.48.79-.99,1.57-1.49,2.35Zm-133.06-6.87l-.77,2.76.07.07.78-2.83h-.08Z"/>
  <path class="cls-3" d="m198.55,173.35l4.59.16-3.93-3.61,3.94-3.61-4.68.17h-.1l1.55-5.8-1.39,1.36-2.31,2.31v-.03s-.04.03-.04.03l-1.18-5.38h0s.02-.01.02-.01l-.02-.09h-.01v.05s-.33-.01-.33-.01v-.05s-.02,0-.02,0l.18-.76v.06s.18.71.18.71l1.42.05-3.84-3.52-.13-.12,4-3.51-4.71.18.04-.15h-.22s1.6-5.7,1.6-5.7l-3.61,3.71-.08-.36-.21.21-1.22-5.29-.45,2.02.17.15-.11.51h-.04l.11.09-.72-.02.07,2.47-2.65-2.66,3.19.12-.5-.44.04-.16-3.02-2.76.22-.2-.07-.07,3.75-3.36-4.73.18,1.61-6.03-3.8,3.9-1.35-6.15-.6,2.73.2.19.58.54-.69-.03h-.28s-.26.95-.26.95l.23.47-.25,1.13-.28-.29-.04.16-2.54-2.55-.64-.02,1.29,4.84h-.08l.33,1.24-.45-.47.09.34-1.27-1.27.93.03-1.32-4.84h.08s-.34-1.23-.34-1.23l.52.52-.11-.4,1.13,1.16,1.9.07-1.15-2.28-.15-.14-.23-.46-.79-.71.35-.31,3.31-2.96-4.37.16.1-.37h-.25s1.47-5.36,1.47-5.36l-3,3.08-.19-.39h-.01s-1.17-2.32-1.17-2.32l-.37-.74-.81,1.64.44-2-.27.54-.38,1.72-.83,1.69-2.39-2.46-1.02-1.02,1.59,5.99-4.78-.17,3.75,3.44-.26.55.12-.11.32-.65.19.18-.51.47-1.54,3.1-.69.03-.1.19.63-.03-1.7,3.49-1.08,1.1-.15-.68-.4.4-1.06-4.7-1.1,4.98-.57-.59-.07.31-3-3.01,1.45,5.43-4.79-.18,3.95,3.63-3.47,3.18.04.16,3.4-.12-3.49,3.51-.75-3.36h-.36s-.78,3.56-.78,3.56l-.77-.79-.13.59-2.61-2.63,1.32,4.96-4.79-.18,3.95,3.63-1.36,1.26-.2-.92h-.02s.2.88.2.88l.5,2.27-1.59.06-1.08.04v.02l1.11-.04-.56,2.56-.91-.94-.18.81-2.31-2.32,1.21,4.58-4.79-.18,3.95,3.62-3.82,3.51,3.5-.13-.03.12,1.19-.04-1.15,4.32,2.25-2.25.22.96.87-.9.84,3.78.86-3.84.84.84.17-.78,2.57,2.64-1.27-4.59h6.93l12.12,12.38v24.11l-6.46,7.51h19.6l-7.14-8.19v-24.86l15.64-7.41-3.25-3.54h.53l.02-.02.02.02h4.28l-.79,2.95.56.59-.81.38-.43,1.61,3.62-3.57v.02s.04-.03.04-.03v.03s.04-.03.04-.03l1.36,6.12.27-1.21,1.08-4.91.03.03v-.03s.03,0,.03,0l3.66,3.6-1.53-5.74h.18Zm-38.21-18.46l-.09-.37.52-.02-.43.39Zm27.54-8.25l.58.53-.69-.03.11-.5Z"/>
  <polygon class="cls-3" points="141.56 173.4 137.96 173.53 138.09 173.41 141.59 173.28 141.56 173.4"/>
  <polygon class="cls-3" points="143.85 164.2 141.54 161.88 141.15 160.42 144.03 163.39 143.85 164.2"/>
  <polygon class="cls-3" points="143.85 175.43 144.07 176.39 141.15 179.39 141.6 177.68 143.85 175.43"/>
  <polygon class="cls-3" points="147.06 161.69 145.47 161.75 144.39 161.79 144.39 161.81 143.99 161.83 144.01 161.81 145.75 160.21 145.84 160.13 145.87 160.1 145.88 160.04 146.18 158.72 146.29 158.23 146.3 158.18 146.38 158.54 146.36 158.55 146.56 159.42 147.06 161.69"/>
  <polygon class="cls-3" points="146.64 175.43 147.48 176.27 146.3 181.63 145.78 179.27 146.64 175.43"/>
  <polygon class="cls-3" points="147.46 149.79 147.17 148.72 150.2 151.83 150.07 152.42 147.46 149.79"/>
  <polygon class="cls-3" points="151 163.82 151.58 166.4 151.57 166.4 149.85 166.47 150.03 165.8 150.41 164.37 150.99 163.77 151 163.82"/>
  <polygon class="cls-3" points="149.89 173.54 151.45 179.39 150.22 178.13 148.95 173.54 149.89 173.54"/>
  <polygon class="cls-3" points="151.47 160.39 150.41 164.37 147.16 167.7 148.22 163.72 151.47 160.39"/>
  <polygon class="cls-3" points="152.95 149.03 156.35 148.91 152.86 152.42 152.11 149.06 151.75 149.07 151.79 148.89 151.93 148.27 152.32 146.48 152.68 148.1 152.85 148.87 152.86 148.92 152.91 148.87 152.95 149.03"/>
  <polygon class="cls-3" points="153.16 166.35 154.68 166.29 152.78 168.02 153.15 166.35 153.16 166.35"/>
  <polygon class="cls-3" points="155.12 154.56 155.29 154.55 154.86 154.98 155.31 153.3 156.52 148.9 156.35 148.91 156.77 148.49 156.27 150.34 155.63 152.69 155.12 154.56"/>
  <polygon class="cls-3" points="155.77 136.81 155.61 136.2 158.84 139.51 158.77 139.82 155.77 136.81"/>
  <polygon class="cls-3" points="159.51 151.18 160.25 154.53 159.88 154.54 159.85 154.57 159.61 154.77 159.56 154.55 156.1 154.68 155.68 155.11 155.84 154.53 155.29 154.55 156.03 153.81 156.13 153.43 157.3 149.03 157.14 149.04 157.56 148.61 156.43 152.81 156.22 153.61 158.77 151.05 158.93 151.77 159.51 151.18"/>
  <polygon class="cls-3" points="160.25 154.53 160.77 154.51 160.34 154.9 160.25 154.53"/>
  <polygon class="cls-3" points="161.57 139.82 160.51 135.12 160.76 133.96 161.97 139.42 161.57 139.82"/>
  <polygon class="cls-3" points="164.27 135.54 162.99 135.59 163.2 135.4 165.33 133.44 166.43 132.43 166.48 132.33 166.6 132.22 165.06 135.32 164.37 135.35 164.27 135.54"/>
  <polygon class="cls-3" points="167.11 131.75 166.6 132.22 166.92 131.57 167.11 131.75"/>
  <polygon class="cls-3" points="166.18 122.52 166.17 122.48 167.2 123.54 166.18 122.52"/>
  <polygon class="cls-3" points="161.07 217.54 168 209.35 168 210.03 161.54 217.54 161.07 217.54"/>
  <polygon class="cls-3" points="172.34 139.54 172.26 139.91 172.34 139.91 172.23 140.41 171.65 139.88 172.06 139.9 171.65 139.52 171.65 139.51 172.33 139.54 172.34 139.54"/>
  <polygon class="cls-3" points="172.04 123.54 172.99 125.47 172.98 125.48 171.81 123.15 171.44 122.41 170.63 124.05 171.07 122.05 170.8 122.59 171.32 120.24 171.39 120.57 171.75 122.23 172.04 123.54"/>
  <polygon class="cls-3" points="174.79 135.1 174.45 133.86 174.97 134.38 174.86 133.98 175.99 135.14 177.89 135.21 176.74 132.93 177.27 133.42 179.07 135.06 179.13 134.8 179.16 134.67 179.36 134.86 179.94 135.4 179.25 135.37 178.97 135.36 178.71 136.32 178.94 136.79 178.69 137.92 178.41 137.63 178.37 137.79 175.83 135.24 175.19 135.22 176.48 140.06 176.4 140.06 176.73 141.3 176.28 140.83 176.37 141.17 175.1 139.9 176.03 139.93 174.71 135.09 174.79 135.1"/>
  <polygon class="cls-3" points="174.96 128.14 174.71 128.15 176.18 122.78 176.47 122.48 174.96 128.14"/>
  <polygon class="cls-3" points="175.92 131.31 179.23 128.35 179.64 128.34 176.03 131.65 176.04 131.67 176.18 131.95 176.36 132.33 175.57 131.62 175.92 131.31"/>
  <polygon class="cls-3" points="180.75 152.2 180.17 151.66 180.86 151.69 181.42 149.14 183.87 151.66 184.03 151.67 184.15 151.81 184.9 151.84 184.87 151.7 184.88 151.7 183.63 147 183.71 147 183.39 145.82 183.75 146.54 184 146.55 184 147.54 183.98 147.54 184.78 151.01 185 151.84 184.92 151.84 185.25 153.08 185.16 152.99 185.17 153.02 185.03 152.86 184.01 151.81 181.07 151.7 181 152.08 181 152.2 180.78 152.06 180.75 152.2"/>
  <polygon class="cls-3" points="175 209.35 181.95 217.54 181.14 217.54 174 209.35 174 184.49 189.64 177.08 186.39 173.54 186.92 173.54 186.94 173.52 186.96 173.54 187.05 173.54 190.09 176.94 190.16 177.02 190.22 177.08 190.13 177.12 190.03 177.17 175 184.49 175 209.35"/>
  <polygon class="cls-3" points="184.42 146.91 187.61 147.03 187.72 147.12 187 147.1 187.07 149.57 184.42 146.91"/>
  <polygon class="cls-3" points="187.65 147.03 187.61 147.03 187.11 146.59 187.15 146.43 187.51 146.76 187.59 146.37 187.76 146.52 187.65 147.03"/>
  <polygon class="cls-3" points="184.35 143.47 184.28 143.4 188.03 140.04 188.09 140.04 184.35 143.47"/>
  <polygon class="cls-3" points="187.88 146.65 188.46 147.18 187.77 147.15 187.88 146.65"/>
  <polygon class="cls-3" points="188.57 167.11 188.41 166.35 188.74 166.36 188.58 167.09 188.57 167.11"/>
  <polygon class="cls-3" points="188.04 144.35 188.19 143.65 189.47 149.43 189.26 149.64 188.04 144.35"/>
  <polygon class="cls-3" points="191.01 177.08 190.2 177.46 190.45 176.49 191.01 177.08"/>
  <polygon class="cls-3" points="191.78 151.78 191.56 151.79 193.16 146.08 193.34 145.89 191.78 151.78"/>
  <polygon class="cls-3" points="193.43 175.49 193.44 175.52 193.4 175.56 189.68 179.39 189.74 179.16 189.77 179.07 193.39 175.5 193.4 175.52 193.43 175.49"/>
  <polygon class="cls-3" points="191.56 158.73 194.64 158.84 193.48 163.89 193.53 163.94 193.78 164.86 193.07 164.13 193.26 164.81 191.17 162.75 189.66 161.26 189.4 160.34 190.3 161.23 190.07 160.39 191.11 161.45 192.81 163.2 191.56 158.73"/>
  <polygon class="cls-3" points="194.83 158.14 195 158.85 194.99 158.85 195 158.9 194.66 158.89 194.67 158.84 194.64 158.84 194.82 158.08 194.83 158.14"/>
  <polygon class="cls-3" points="196.53 159 195.02 158.94 195 158.85 196.42 158.9 196.53 159"/>
  <polygon class="cls-3" points="192.45 155.26 196.45 151.75 196.53 151.75 192.58 155.38 192.45 155.26"/>
  <polygon class="cls-3" points="196.24 164.27 199.98 160.42 199.92 160.66 198.53 162.02 196.22 164.33 196.21 164.3 196.24 164.27"/>
  <polygon class="cls-3" points="199.93 179.19 199.98 179.39 196.23 175.54 196.21 175.52 196.22 175.49 196.24 175.5 199.9 179.1 199.93 179.19"/>
  <polygon class="cls-3" points="203.15 173.52 203.16 173.53 198.55 173.37 198.47 173.36 198.55 173.36 198.55 173.35 203.14 173.51 203.15 173.52"/>
  <polygon class="cls-3" points="198.47 166.46 203.16 166.28 203.15 166.29 198.47 166.46"/>
  <text/>
  <g>
    <path class="cls-2" d="m12.91,278.56v8.52h9.85v-8.52h2.66v20.36h-2.66v-9.55h-9.85v9.55h-2.63v-20.36h2.63Z"/>
    <path class="cls-2" d="m32.61,278.56v20.36h-2.63v-20.36h2.63Z"/>
    <path class="cls-2" d="m37.2,278.56h2.63v9.82h.09c.54-.79,1.09-1.51,1.6-2.18l6.22-7.64h3.26l-7.37,8.64,7.95,11.72h-3.11l-6.71-10-1.93,2.24v7.76h-2.63v-20.36Z"/>
    <path class="cls-2" d="m56.2,278.56v20.36h-2.63v-20.36h2.63Z"/>
    <path class="cls-2" d="m60.79,298.92v-20.36h2.87l6.53,10.3c1.51,2.39,2.69,4.53,3.66,6.62l.06-.03c-.24-2.72-.3-5.2-.3-8.37v-8.52h2.48v20.36h-2.66l-6.47-10.33c-1.42-2.27-2.78-4.59-3.81-6.8l-.09.03c.15,2.57.21,5.02.21,8.4v8.7h-2.48Z"/>
    <path class="cls-2" d="m96.17,298.01c-1.18.42-3.5,1.12-6.25,1.12-3.08,0-5.62-.79-7.61-2.69-1.75-1.69-2.84-4.41-2.84-7.58.03-6.07,4.2-10.51,11.03-10.51,2.36,0,4.2.51,5.08.94l-.63,2.15c-1.09-.48-2.45-.88-4.5-.88-4.95,0-8.19,3.08-8.19,8.19s3.11,8.22,7.86,8.22c1.72,0,2.9-.24,3.5-.54v-6.07h-4.14v-2.12h6.71v9.79Z"/>
    <path class="cls-2" d="m123.99,288.53c0,7.01-4.26,10.73-9.46,10.73s-9.15-4.17-9.15-10.33c0-6.47,4.02-10.69,9.46-10.69s9.15,4.26,9.15,10.3Zm-15.8.33c0,4.35,2.36,8.25,6.5,8.25s6.53-3.84,6.53-8.46c0-4.05-2.11-8.28-6.5-8.28s-6.53,4.02-6.53,8.49Z"/>
    <path class="cls-2" d="m127.4,298.92v-20.36h2.87l6.53,10.3c1.51,2.39,2.69,4.53,3.66,6.62l.06-.03c-.24-2.72-.3-5.2-.3-8.37v-8.52h2.48v20.36h-2.66l-6.47-10.33c-1.42-2.27-2.78-4.59-3.81-6.8l-.09.03c.15,2.57.21,5.02.21,8.4v8.7h-2.48Z"/>
    <path class="cls-2" d="m153.68,278.56h10.97v2.21h-8.34v6.77h7.7v2.18h-7.7v9.21h-2.63v-20.36Z"/>
    <path class="cls-2" d="m168.39,278.83c1.33-.27,3.23-.42,5.05-.42,2.81,0,4.62.51,5.89,1.66,1.03.91,1.6,2.3,1.6,3.87,0,2.69-1.69,4.47-3.84,5.2v.09c1.57.54,2.51,1.99,2.99,4.11.66,2.84,1.15,4.8,1.57,5.59h-2.72c-.33-.57-.79-2.33-1.36-4.86-.6-2.81-1.69-3.87-4.08-3.96h-2.48v8.82h-2.63v-20.09Zm2.63,9.28h2.69c2.81,0,4.59-1.54,4.59-3.87,0-2.63-1.9-3.78-4.68-3.81-1.27,0-2.18.12-2.6.24v7.43Z"/>
    <path class="cls-2" d="m187.27,278.56v12.05c0,4.56,2.02,6.5,4.74,6.5,3.02,0,4.95-1.99,4.95-6.5v-12.05h2.66v11.87c0,6.25-3.29,8.82-7.7,8.82-4.17,0-7.31-2.39-7.31-8.7v-11.99h2.66Z"/>
    <path class="cls-2" d="m203.82,295.72c1.18.73,2.9,1.33,4.71,1.33,2.69,0,4.26-1.42,4.26-3.47,0-1.9-1.09-2.99-3.84-4.05-3.32-1.18-5.38-2.9-5.38-5.77,0-3.17,2.63-5.53,6.59-5.53,2.08,0,3.6.48,4.5,1l-.73,2.15c-.66-.36-2.02-.97-3.87-.97-2.78,0-3.84,1.66-3.84,3.05,0,1.9,1.24,2.84,4.05,3.93,3.44,1.33,5.2,2.99,5.2,5.98,0,3.14-2.33,5.86-7.13,5.86-1.96,0-4.11-.57-5.2-1.3l.66-2.21Zm4.86-18.34l-3.17-3.44h2.24l1.93,2.12h.06l1.9-2.12h2.15l-3.08,3.44h-2.02Z"/>
    <path class="cls-2" d="m219.07,278.56h2.63v9.82h.09c.54-.79,1.09-1.51,1.6-2.18l6.22-7.64h3.26l-7.37,8.64,7.95,11.72h-3.11l-6.71-10-1.93,2.24v7.76h-2.63v-20.36Z"/>
    <path class="cls-2" d="m239.04,292.51l-2.11,6.41h-2.72l6.92-20.36h3.17l6.95,20.36h-2.81l-2.18-6.41h-7.22Zm6.68-2.05l-1.99-5.86c-.45-1.33-.75-2.54-1.06-3.72h-.06c-.3,1.21-.63,2.45-1.03,3.69l-1.99,5.89h6.13Z"/>
    <path class="cls-2" d="m276.14,298.01c-1.18.42-3.5,1.12-6.25,1.12-3.08,0-5.62-.79-7.61-2.69-1.75-1.69-2.84-4.41-2.84-7.58.03-6.07,4.2-10.51,11.03-10.51,2.36,0,4.2.51,5.08.94l-.63,2.15c-1.09-.48-2.45-.88-4.5-.88-4.95,0-8.19,3.08-8.19,8.19s3.11,8.22,7.86,8.22c1.72,0,2.9-.24,3.5-.54v-6.07h-4.14v-2.12h6.71v9.79Z"/>
    <path class="cls-2" d="m297.55,288.53c0,7.01-4.26,10.73-9.46,10.73s-9.15-4.17-9.15-10.33c0-6.47,4.02-10.69,9.46-10.69s9.15,4.26,9.15,10.3Zm-15.8.33c0,4.35,2.36,8.25,6.5,8.25s6.53-3.84,6.53-8.46c0-4.05-2.11-8.28-6.5-8.28s-6.53,4.02-6.53,8.49Z"/>
    <path class="cls-2" d="m300.96,278.83c1.33-.27,3.23-.42,5.05-.42,2.81,0,4.62.51,5.89,1.66,1.03.91,1.6,2.3,1.6,3.87,0,2.69-1.69,4.47-3.84,5.2v.09c1.57.54,2.51,1.99,2.99,4.11.66,2.84,1.15,4.8,1.57,5.59h-2.72c-.33-.57-.79-2.33-1.36-4.86-.6-2.81-1.69-3.87-4.08-3.96h-2.48v8.82h-2.63v-20.09Zm2.63,9.28h2.69c2.81,0,4.59-1.54,4.59-3.87,0-2.63-1.9-3.78-4.68-3.81-1.27,0-2.18.12-2.6.24v7.43Z"/>
    <path class="cls-2" d="m320.66,292.51l-2.11,6.41h-2.72l6.92-20.36h3.17l6.95,20.36h-2.81l-2.18-6.41h-7.22Zm6.68-2.05l-1.99-5.86c-.45-1.33-.75-2.54-1.06-3.72h-.06c-.3,1.21-.63,2.45-1.03,3.69l-1.99,5.89h6.13Z"/>
  </g>
</svg>