<?xml version="1.0" encoding="UTF-8"?>
<svg id="Layer_1" data-name="Layer 1" xmlns="http://www.w3.org/2000/svg" viewBox="0 0 92 92">
  <defs>
    <style>
      .cls-1 {
        fill: #fff;
      }
    </style>
  </defs>
  <path class="cls-1" d="m55.93,4c17.68,0,32.07,14.39,32.07,32.07v19.86c0,17.68-14.39,32.07-32.07,32.07h-19.86c-17.68,0-32.07-14.39-32.07-32.07v-19.86C4,18.39,18.39,4,36.07,4h19.86m0-4h-19.86C16.15,0,0,16.15,0,36.07v19.86c0,19.92,16.15,36.07,36.07,36.07h19.86c19.92,0,36.07-16.15,36.07-36.07v-19.86C92,16.15,75.85,0,55.93,0h0Z"/>
  <g>
    <g>
      <rect class="cls-1" x="13.41" y="21.48" width="63.56" height="7.77"/>
      <path class="cls-1" d="m76.47,21.98v6.77H13.91v-6.77h62.56m1-1H12.91v8.77h64.56v-8.77h0Z"/>
    </g>
    <g>
      <rect class="cls-1" x="13.41" y="42.52" width="63.56" height="7.77"/>
      <path class="cls-1" d="m76.47,43.02v6.77H13.91v-6.77h62.56m1-1H12.91v8.77h64.56v-8.77h0Z"/>
    </g>
    <g>
      <rect class="cls-1" x="13.41" y="63.56" width="63.56" height="7.77"/>
      <path class="cls-1" d="m76.47,64.06v6.77H13.91v-6.77h62.56m1-1H12.91v8.77h64.56v-8.77h0Z"/>
    </g>
  </g>
</svg>