<?xml version="1.0" encoding="UTF-8"?>
<svg id="Layer_1" data-name="Layer 1" xmlns="http://www.w3.org/2000/svg" viewBox="0 0 120 112.71">
  <defs>
    <style>
      .cls-1 {
        fill: #e6e6e6;
      }

      .cls-2 {
        fill: #fff;
        stroke: #ccc;
        stroke-miterlimit: 10;
      }
    </style>
  </defs>
  <g>
    <g>
      <path class="cls-1" d="m30.19,16.3s0,.02,0,.03c0,0-.02-.02-.03-.02.01,0,.02-.01.03-.01Z"/>
      <path class="cls-1" d="m30.19,16.3s-.02,0-.03.01c0,0,.02.01.03.02,0-.01,0-.02,0-.03h0Z"/>
    </g>
    <g>
      <path class="cls-1" d="m89.12,16.93s-.03.02-.04.04c0-.02,0-.04,0-.06.02,0,.03.02.04.02Z"/>
      <path class="cls-1" d="m89.08,16.91s0,.04,0,.06c.01-.01.03-.02.04-.04-.02,0-.03-.02-.04-.02h0Z"/>
    </g>
    <g>
      <path class="cls-1" d="m80.97,51.46c-3.81,0-7.45-1.18-10.52-3.4l-.29-.21-.29.21c-3.07,2.23-6.71,3.4-10.52,3.4s-7.75-1.28-10.9-3.69l-.3-.23-.3.23c-3.15,2.41-6.92,3.69-10.9,3.69s-8.18-1.44-11.38-4.07l-.23-.19-.27.11c-2.09.83-4.31,1.24-6.58,1.24C8.56,48.55.5,40.5.5,30.59S8.56,12.63,18.46,12.63c1.43,0,2.85.17,4.22.5l.45.11.14-.44c.96-2.94,3.69-4.92,6.79-4.92,1.05,0,2.05.22,2.98.65l.39.18.24-.35c3.35-4.92,8.9-7.86,14.85-7.86,3.92,0,7.65,1.24,10.78,3.59l.3.23.3-.23c3.13-2.35,6.85-3.59,10.78-3.59,5.95,0,11.5,2.94,14.85,7.86l.24.35.38-.18c.93-.43,1.94-.65,2.98-.65,3.14,0,5.95,2.1,6.85,5.1l.14.47.48-.14c1.59-.46,3.25-.69,4.93-.69,9.9,0,17.96,8.06,17.96,17.96s-8.06,17.96-17.96,17.96c-2.78,0-5.45-.62-7.93-1.84l-.31-.15-.25.23c-3.31,3.01-7.6,4.67-12.08,4.67Zm7.62-34.48v1.18l1.36-1.32-.59-.35-.8-.4.04.9Zm-58.51-1.16h-.06s-.87.44-.87.44l.74.48.64.6.15-.89.14-.76-.74.13Z"/>
      <path class="cls-1" d="m70.68,1c5.78,0,11.18,2.86,14.44,7.65l.48.7.77-.36c.87-.4,1.8-.61,2.77-.61,2.92,0,5.54,1.95,6.37,4.74l.28.95.95-.27c1.55-.44,3.16-.67,4.79-.67,9.63,0,17.46,7.83,17.46,17.46s-7.83,17.46-17.46,17.46c-2.71,0-5.3-.6-7.71-1.79l-.61-.3-.5.46c-3.22,2.93-7.39,4.54-11.74,4.54-3.7,0-7.24-1.14-10.23-3.31l-.59-.43-.59.43c-2.99,2.17-6.52,3.31-10.23,3.31s-7.54-1.24-10.6-3.59l-.61-.47-.61.47c-3.06,2.35-6.73,3.59-10.6,3.59s-7.95-1.4-11.07-3.95l-.45-.37-.55.22c-2.04.8-4.19,1.21-6.4,1.21-9.63,0-17.46-7.83-17.46-17.46S8.83,13.13,18.46,13.13c1.39,0,2.77.16,4.1.49l.9.22.29-.88c.89-2.73,3.43-4.57,6.32-4.57.97,0,1.91.2,2.77.61l.77.36.48-.7c3.26-4.79,8.66-7.65,14.44-7.65,3.81,0,7.44,1.21,10.48,3.49l.6.45.6-.45c3.04-2.28,6.66-3.49,10.48-3.49M29.54,17.1l1.19,1.2.43-1.72.02-.08v-.03s.31-1.52.31-1.52l-1.54.39-.14.04-.1.05-1.54.77,1.36.91m58.54-.09l-.02,2.39,1.71-1.71.04-.04.02-.02.92-.96-1.17-.64-.04-.02h-.02s-1.65-.82-1.65-.82l.21,1.81M70.68,0c-4.16,0-7.99,1.37-11.08,3.69-3.09-2.32-6.92-3.69-11.08-3.69-6.35,0-11.95,3.2-15.27,8.08-.97-.45-2.05-.7-3.19-.7-3.39,0-6.27,2.2-7.27,5.26-1.39-.34-2.84-.51-4.34-.51C8.27,12.13,0,20.4,0,30.59s8.27,18.46,18.46,18.46c2.39,0,4.67-.45,6.76-1.28,3.19,2.61,7.26,4.18,11.7,4.18s8.1-1.41,11.21-3.79c3.11,2.38,6.99,3.79,11.21,3.79s7.77-1.3,10.81-3.5c3.04,2.2,6.78,3.5,10.81,3.5,4.78,0,9.14-1.82,12.42-4.8,2.46,1.21,5.23,1.9,8.15,1.9,10.2,0,18.46-8.27,18.46-18.46s-8.27-18.46-18.46-18.46c-1.76,0-3.46.25-5.07.71-.94-3.15-3.87-5.45-7.33-5.45-1.14,0-2.22.25-3.19.7-3.32-4.88-8.92-8.08-15.27-8.08h0ZM30.19,16.33s-.02-.02-.03-.02c.01,0,.02-.01.03-.01,0,.01,0,.02,0,.03h0Zm58.89.63s0-.04,0-.06c.02,0,.03.02.04.02-.01.01-.03.02-.04.04h0Z"/>
    </g>
    <g>
      <path class="cls-1" d="m30.19,16.3s0,.02,0,.03c0,0-.02-.02-.03-.02.01,0,.02-.01.03-.01Z"/>
      <path class="cls-1" d="m30.19,16.3s-.02,0-.03.01c0,0,.02.01.03.02,0-.01,0-.02,0-.03h0Z"/>
    </g>
    <g>
      <path class="cls-1" d="m89.12,16.93s-.03.02-.04.04c0-.02,0-.04,0-.06.02,0,.03.02.04.02Z"/>
      <path class="cls-1" d="m89.08,16.91s0,.04,0,.06c.01-.01.03-.02.04-.04-.02,0-.03-.02-.04-.02h0Z"/>
    </g>
  </g>
  <g>
    <polygon class="cls-2" points="27.34 65.24 26.23 65.39 26.99 66.22 23.83 64.4 25.94 67.67 24.81 66.96 24.86 68.04 23.34 64.32 23.3 68.63 22.93 64.4 22.06 68.07 22.09 66.77 20.66 67.67 22.93 64.4 19.89 66.29 20.65 65.43 19.26 65.24 22.44 64.32 19.37 63.53 20.55 63.36 19.75 62.47 22.93 63.75 20.75 61.09 21.94 61.82 21.9 60.67 23.34 63.42 23.38 60.1 23.91 61.69 24.7 60.67 23.75 63.83 26.02 61.04 24.24 63.83 26.85 62.47 26.12 63.28 27.45 63.45 23.83 64.4 27.34 65.24"/>
    <polygon class="cls-2" points="45.27 85.02 44.16 85.17 44.93 86 41.77 84.18 43.87 87.45 42.75 86.74 42.8 87.82 41.27 84.1 41.23 88.41 40.86 84.18 39.99 87.85 40.03 86.55 38.6 87.45 40.86 84.18 37.82 86.07 38.59 85.21 37.19 85.02 40.37 84.1 37.31 83.31 38.48 83.14 37.68 82.25 40.86 83.53 38.69 80.87 39.87 81.6 39.83 80.45 41.27 83.2 41.31 79.88 41.84 81.47 42.64 80.45 41.68 83.61 43.96 80.82 42.18 83.61 44.79 82.25 44.06 83.06 45.39 83.23 41.77 84.18 45.27 85.02"/>
    <polygon class="cls-2" points="89.05 92.4 87.94 92.56 88.71 93.38 85.55 91.57 87.65 94.83 86.53 94.13 86.58 95.21 85.05 91.48 85.01 95.79 84.64 91.57 83.77 95.24 83.81 93.93 82.38 94.83 84.64 91.57 81.6 93.46 82.37 92.59 80.97 92.4 84.15 91.48 81.09 90.7 82.26 90.52 81.46 89.64 84.64 90.91 82.47 88.25 83.65 88.98 83.61 87.84 85.05 90.58 85.09 87.27 85.62 88.86 86.42 87.84 85.47 90.99 87.74 88.2 85.96 90.99 88.57 89.64 87.84 90.45 89.17 90.62 85.55 91.57 89.05 92.4"/>
    <polygon class="cls-2" points="108.04 65.24 106.93 65.39 107.7 66.22 104.54 64.4 106.64 67.67 105.51 66.96 105.57 68.04 104.04 64.32 104 68.63 103.63 64.4 102.76 68.07 102.8 66.77 101.37 67.67 103.63 64.4 100.59 66.29 101.36 65.43 99.96 65.24 103.14 64.32 100.08 63.53 101.25 63.36 100.45 62.47 103.63 63.75 101.46 61.09 102.64 61.82 102.6 60.67 104.04 63.42 104.08 60.1 104.61 61.69 105.41 60.67 104.45 63.83 106.73 61.04 104.95 63.83 107.55 62.47 106.83 63.28 108.16 63.45 104.54 64.4 108.04 65.24"/>
    <polygon class="cls-2" points="48.44 68.14 47.33 68.29 48.09 69.12 44.93 67.3 47.04 70.57 45.91 69.86 45.96 70.95 44.44 67.22 44.4 71.53 44.03 67.3 43.16 70.97 43.19 69.67 41.76 70.57 44.03 67.3 40.99 69.19 41.75 68.33 40.36 68.14 43.54 67.22 40.47 66.43 41.65 66.26 40.85 65.38 44.03 66.65 41.85 63.99 43.04 64.72 43 63.57 44.44 66.32 44.48 63 45.01 64.59 45.8 63.57 44.85 66.73 47.12 63.94 45.34 66.73 47.95 65.38 47.22 66.18 48.55 66.35 44.93 67.3 48.44 68.14"/>
    <polygon class="cls-2" points="87.21 72.36 86.1 72.51 86.86 73.34 83.7 71.52 85.8 74.79 84.68 74.08 84.73 75.16 83.21 71.44 83.17 75.75 82.8 71.52 81.92 75.19 81.96 73.89 80.53 74.79 82.8 71.52 79.76 73.41 80.52 72.55 79.13 72.36 82.31 71.44 79.24 70.65 80.42 70.48 79.62 69.59 82.8 70.87 80.62 68.21 81.81 68.94 81.77 67.79 83.21 70.54 83.25 67.22 83.78 68.81 84.57 67.79 83.62 70.95 85.89 68.16 84.11 70.95 86.72 69.59 85.99 70.4 87.32 70.57 83.7 71.52 87.21 72.36"/>
    <polygon class="cls-2" points="66.37 100.84 65.26 100.99 66.03 101.82 62.87 100.01 64.97 103.27 63.84 102.56 63.9 103.65 62.37 99.92 62.33 104.23 61.96 100.01 61.09 103.68 61.13 102.37 59.7 103.27 61.96 100.01 58.92 101.9 59.69 101.03 58.29 100.84 61.47 99.92 58.41 99.14 59.58 98.96 58.78 98.08 61.96 99.35 59.78 96.69 60.97 97.42 60.93 96.28 62.37 99.02 62.41 95.71 62.94 97.3 63.74 96.28 62.78 99.43 65.06 96.64 63.28 99.43 65.88 98.08 65.16 98.88 66.49 99.06 62.87 100.01 66.37 100.84"/>
    <polygon class="cls-2" points="70.06 81.85 68.95 82.01 69.72 82.83 66.56 81.02 68.66 84.28 67.54 83.58 67.59 84.66 66.07 80.94 66.02 85.24 65.66 81.02 64.78 84.69 64.82 83.38 63.39 84.28 65.66 81.02 62.61 82.91 63.38 82.05 61.99 81.85 65.16 80.94 62.1 80.15 63.27 79.97 62.47 79.09 65.66 80.36 63.48 77.71 64.66 78.43 64.62 77.29 66.07 80.03 66.1 76.72 66.63 78.31 67.43 77.29 66.48 80.44 68.75 77.65 66.97 80.44 69.58 79.09 68.85 79.9 70.18 80.07 66.56 81.02 70.06 81.85"/>
    <polygon class="cls-2" points="108.04 105.06 106.93 105.21 107.7 106.04 104.54 104.23 106.64 107.49 105.51 106.78 105.57 107.87 104.04 104.14 104 108.45 103.63 104.23 102.76 107.9 102.8 106.59 101.37 107.49 103.63 104.23 100.59 106.12 101.36 105.25 99.96 105.06 103.14 104.14 100.08 103.36 101.25 103.18 100.45 102.3 103.63 103.57 101.46 100.91 102.64 101.64 102.6 100.5 104.04 103.24 104.08 99.93 104.61 101.52 105.41 100.5 104.45 103.65 106.73 100.86 104.95 103.65 107.55 102.3 106.83 103.1 108.16 103.28 104.54 104.23 108.04 105.06"/>
    <polygon class="cls-2" points="69.8 65.24 68.69 65.39 69.46 66.22 66.29 64.4 68.4 67.67 67.27 66.96 67.32 68.04 65.8 64.32 65.76 68.63 65.39 64.4 64.52 68.07 64.55 66.77 63.12 67.67 65.39 64.4 62.35 66.29 63.11 65.43 61.72 65.24 64.9 64.32 61.84 63.53 63.01 63.36 62.21 62.47 65.39 63.75 63.21 61.09 64.4 61.82 64.36 60.67 65.8 63.42 65.84 60.1 66.37 61.69 67.16 60.67 66.21 63.83 68.49 61.04 66.7 63.83 69.31 62.47 68.58 63.28 69.91 63.45 66.29 64.4 69.8 65.24"/>
  </g>
</svg>