<?xml version="1.0" encoding="UTF-8"?>
<svg id="Layer_1" data-name="Layer 1" xmlns="http://www.w3.org/2000/svg" viewBox="0 0 220.2 192">
  <defs>
    <style>
      .cls-1 {
        fill: #e6e6e6;
      }

      .cls-2 {
        fill: #ccc;
        stroke: #ccc;
        stroke-miterlimit: 10;
      }
    </style>
  </defs>
  <g>
    <path class="cls-1" d="m143.98,191.49c-23.19-.51-51.25-.65-71.76-.74-8.7-.04-15.57-.07-19.97-.13-.46,0-.89-.09-1.28-.25l-.11-.04h-.12c-.09.01-9.51.64-20.07.64-25.06,0-29.62-3.35-30.11-5.35-.37-1.52,1.1-4.34,10.24-9.12,36.9-19.3,23.68-56.91,22.47-60.1,1.66-3.35,3.5-5.05,5.49-5.05,3.13,0,5.71,4.2,5.73,4.24l9.78,20.02.35-1.28c.45-1.66.93-3.33,1.42-5v-.05s.02-.05.02-.05c1.33-17.77,3.06-39.15,3.59-45.54,2.01,4.32,4.41,8.89,6.84,13.03l.46.79.42-.81c10.8-21.06,17.89-47.23,23.07-66.34C94.77,14.33,98.51.5,101.8.5c5.03,0,10.77,31.91,15.72,63.13-.48,11.55,5.17,20.36,10.63,28.88,2.42,3.78,4.71,7.34,6.47,11.11l.65,1.39.29-1.51c.91-4.68,1.56-9.25,2.08-12.92.62-4.39,1.27-8.93,1.91-9.56,1.58,1.41,3.68,14.15,5.71,26.48,1.6,9.76,3.26,19.85,5.08,27.67v.06s.04.06.04.06c.89,1.68,1.76,3.33,2.63,4.94l.92-.38c-.04-.14-4.22-13.97.35-20.16,1.45-1.96,3.67-2.95,6.59-2.95.43,0,.87.02,1.33.06,1.35.12,2.6.18,3.72.18,4.5,0,6.46-.98,7.3-1.96.05.11.1.23.16.35-.48,2.9-6.25,42.28,30.08,61.35,14.83,7.79,16.52,11.08,16.21,12.35-.2.81-1.65,2.17-9.1,2.17-4.03,0-8.33-.39-10.91-.63-.64-.06-1.17-.11-1.55-.14h-52.65s-.14.12-.14.12c-.14.12-.29.19-.46.27-.26.12-.58.27-.88.61Z"/>
    <path class="cls-1" d="m101.8,1c.74,0,2.81,1.33,5.98,13.62,2.59,10.05,5.53,25.64,9.24,49.04-.47,11.68,5.21,20.55,10.71,29.12,2.41,3.76,4.69,7.31,6.44,11.05l1.3,2.78.59-3.02c.91-4.69,1.56-9.27,2.09-12.95.5-3.5,1.01-7.09,1.49-8.62,1.44,3.07,3.47,15.44,5.13,25.56,1.61,9.76,3.27,19.86,5.09,27.7l.03.13.06.11c.89,1.68,1.77,3.33,2.64,4.95l1.84-.77c-.04-.14-4.15-13.73.27-19.71,1.37-1.85,3.39-2.75,6.19-2.75.41,0,.85.02,1.29.06,1.36.12,2.63.19,3.77.19,3.59,0,5.66-.63,6.84-1.41-.42,2.87-1.37,11.78.94,22.52,2.55,11.86,9.73,28.19,29.52,38.58,15.49,8.14,16.13,11.08,15.95,11.79-.07.3-.84,1.79-8.61,1.79-4.01,0-8.3-.39-10.86-.63-.65-.06-1.18-.11-1.56-.14h-.04s-.04,0-.04,0h-52.8l-.28.23c-.09.07-.18.12-.35.2-.25.11-.56.26-.88.56-23.15-.51-51.11-.64-71.56-.74-8.7-.04-15.56-.07-19.96-.13-.39,0-.76-.08-1.09-.21l-.22-.09-.23.02c-.09,0-9.49.63-20.04.63-26.36,0-29.34-3.8-29.63-4.96-.22-.89.32-3.5,9.99-8.56,20.25-10.59,25.32-26.62,26.01-38.2.67-11.19-2.44-20.26-3.22-22.32,1.1-2.17,2.81-4.57,4.94-4.57,2.33,0,4.58,2.83,5.28,3.96l9.2,18.82,1.16,2.38.7-2.56c.45-1.64.93-3.32,1.41-5l.03-.1v-.1c1.26-16.66,2.8-35.76,3.44-43.68,1.84,3.82,3.94,7.77,6.06,11.38l.92,1.57.83-1.62c10.82-21.1,17.92-47.31,23.11-66.44,2.37-8.74,4.42-16.3,6.31-21.62,2.53-7.09,4.04-7.86,4.58-7.86m0-1c-7.75,0-14.45,56.61-34.89,96.47-4.71-8.03-7.6-14.72-7.61-14.72-.01.04-2.16,26.23-3.74,47.44-.49,1.68-.96,3.35-1.42,5.01l-9.22-18.87s-2.71-4.48-6.16-4.48c-1.89,0-4.01,1.35-6.03,5.53,0,0,16.23,39.59-22.16,59.68-25.12,13.14-.16,15.41,20.1,15.41,10.71,0,20.11-.63,20.11-.63.45.19.94.29,1.47.29,14.74.17,58.87.14,91.98.88h0c.46-.66.93-.58,1.43-1h52.43c1.86.14,7.42.77,12.49.77,9.93,0,18.03-2.39-6.88-15.47-37.65-19.77-29.79-60.98-29.79-60.98-.32-.66-.51-1.14-.62-1.48-.19.97-1.49,2.66-7.36,2.66-1.07,0-2.29-.06-3.68-.18-.48-.04-.94-.06-1.38-.06-14.73,0-7.42,23.76-7.42,23.76-.87-1.62-1.75-3.26-2.63-4.94-4.38-18.85-8.05-52.22-10.99-54.45-.1-.08-.2-.11-.29-.11-1.59,0-2.13,10.84-4.48,22.91-5.82-12.46-17.76-23.39-17.05-39.81C110.65,17.13,106.06,0,101.8,0h0Zm71.41,113.16s-.06.19.09.67c.08-.4-.03-.67-.09-.67h0Z"/>
  </g>
  <path class="cls-2" d="m121.4,114.16c-1.72,10.67-7.59,16.44-8.19,17.01-.65.61-8.39,7.74-16.04,3.78-7.29-3.77-7.17-13.81-13.2-15.12-5.22-1.13-11.68,5.01-12.03,11.34-.26,4.64,2.83,8.45,5.18,11.34,7.54,9.29,14.49,7.91,14.87,11.34.61,5.41-15.9,16.12-33.51,20.67-14.32,3.7-16.73.05-25.4,5.67-5.54,3.59-11.68,4.97-17.46,7.68-1.27.59-4.19,1.97-6.68,0-1.41-1.11-2.88-3.46-2.67-5.67.47-4.92,9.08-6.63,9.36-5.67.17.6-2.9,2.24-2.67,3.78.21,1.47,3.28,1.91,5.35,1.89,4.95-.04,7.67-2.71,13.37-5.67,0,0,4.02-2.08,9.36-3.78,7.08-2.25,11.94-1.76,16.04-1.89,15.71-.5,31.26-10.48,30.92-15.12-.04-.52-.26-.8-4.01-3.78-7.01-5.57-7.87-5.87-9.36-7.56-.74-.84-5.73-6.51-5.52-13.23.27-8.33,8.48-16.56,14.87-15.12,6.61,1.49,6.65,12.28,14.71,15.12,6.75,2.37,12.67-3.11,13.37-3.78,1.25-1.19,5.92-5.66,6.68-13.23.43-4.29-.54-8.15-1.34-11.34-.65-2.61-1.33-5.31-2.67-7.56-3.62-6.06-8.89-3.47-16.04-7.56-2.31-1.32-6.14-4.2-9.53-9.45-3.33-5.16-6.98-13.85-5.18-17.01.96-1.68,3.33-1.14,8.02,0,8.18,1.99-1.67,0,13.2,3.78,14.87,3.78-.45-1.97-4.01-7.56-5.84-9.16-6.78-10.26-8.02-13.23-1.52-3.64-3.54-8.41-2.67-13.23,10.37-7.56,12.15-11.14,12.2-11.33t0,0h-.08v-1.98c-.16.06-.41.09-.67.09-2.63,0-4.76-3.01-4.76-6.73s2.13-6.73,4.76-6.73,4.76,3.01,4.76,6.73c0,1.81-.51,3.46-1.09,4.67v4.62c.56.82,7.94-2.56,1.09,4.05-6.85,6.61-1.24,4.72-2.76,4.72-.96,0-1.8-.83-2.29-2.1-.15.07-.31.14-.46.21-2.06.93-7.74,3.51-8.02,7.56-.07,1.01,1.12,2.82,3.32,6.44.34.56.59.95.69,1.11,3.11,4.94,3.91,7.65,5.52,9.45,3.1,3.46,4.34,2.08,8.02,5.67,2.16,2.1,6.07,6.81,5.35,9.45-.64,2.31-4.6,2.12-9.36,1.89-3.1-.15-6.19-.65-13.54-1.89-4.56-.77-6.33-1.08-6.68,0-.67,2.04,4.09,7.78,4.69,8.5.35.42.63.73.82.95,2.04,2.26,5.16,5.72,9.19,7.56,2.3,1.05,8.76,3.34,9.04,3.5.11.06.22.13.22.13,0,0,.13.08.27.15,4.37,2.57,6.68,5.67,6.68,5.67,2.79,3.73,3.77,8.21,4.01,9.45.99,4.98.36,9.08,0,11.34Z"/>
</svg>